<?xml version="1.0" encoding="utf-8"?>
<!-- Generator: Adobe Illustrator 25.0.0, SVG Export Plug-In . SVG Version: 6.00 Build 0)  -->
<svg version="1.1" id="Layer_1" xmlns="http://www.w3.org/2000/svg" xmlns:xlink="http://www.w3.org/1999/xlink" x="0px" y="0px"
	 viewBox="0 0 512 512" style="enable-background:new 0 0 512 512;" xml:space="preserve">
<style type="text/css">
	.st0{fill:#12426A;}
</style>
<path class="st0" d="M474,157h-6v-23.8c0-10-8-18.1-18-18.2h-13.7c-2.2,0.1-4.3,0.5-6.3,1.3V101c0.1-9.8-7.8-17.9-17.6-18
	c-0.1,0-0.1,0-0.2,0h-13.7c-9.9,0-17.5,8-17.5,18v55H230v-55c0.2-9.8-7.6-17.8-17.4-18c-0.1,0-0.2,0-0.3,0h-13.7
	c-9.8,0-17.7,8-17.6,17.7c0,0.1,0,0.2,0,0.3v15.3c-2.1-0.8-4.2-1.2-6.4-1.3h-13.7c-10,0.1-18,8.3-17.9,18.2V157h-6.1
	c-9.8-0.1-17.8,7.6-17.9,17.4c0,0.1,0,0.2,0,0.3v16.5c0,9.8,7.9,17.8,17.7,17.9c0.1,0,0.1,0,0.2,0h6.1v23.6
	c0,9.9,7.9,18.4,17.9,18.4h13.7c2.2-0.1,4.4-0.6,6.4-1.4v15.3c0,9.9,7.7,18.2,17.6,18.2h13.7c9.9-0.1,17.8-8.2,17.7-18
	c0,0,0-0.1,0-0.1V210h151v54.8c0,9.9,7.6,18.2,17.5,18.2h13.7c9.9-0.1,17.9-8.2,17.8-18.1c0,0,0,0,0-0.1v-15c1.7,0.6,3.5,1,5.3,1.1
	H451c9.4,0,17-8,17-17.4V209h6c9.9,0.1,18-7.9,18-17.8c0,0,0-0.1,0-0.1v-16.5c0-9.8-8-17.7-17.8-17.7C474.1,157,474,157,474,157z
	 M143,197h-6.1c-3.2,0.1-5.8-2.5-5.9-5.7c0-0.1,0-0.1,0-0.2v-16.5c0-3.1,2.5-5.7,5.6-5.7c0.1,0,0.2,0,0.3,0h6.1V197z M181,232
	c0,3.3-2.7,6-6,6c0,0,0,0,0,0H161c-3.3,0-6-2.7-6-6c0,0,0,0,0,0V133c0-3.3,2.7-6,6-6c0,0,0,0,0,0H175c3.3,0,6,2.7,6,6c0,0,0,0,0,0
	V232z M218,264.8c0,3.3-2.3,6.2-5.7,6.2h-13.7c-3.3,0-5.6-2.9-5.6-6.3V101c-0.2-3.1,2.2-5.8,5.3-6c0.1,0,0.2,0,0.3,0h13.7
	c3.1,0,5.7,2.6,5.7,5.7c0,0.1,0,0.2,0,0.3V264.8z M381,198H230v-30h151V198z M418,264.8c0.1,3.3-2.4,6-5.7,6.2c0,0-0.1,0-0.1,0
	h-13.7c-3.3,0-5.5-2.8-5.5-6.2V101c0-3.3,2.2-6,5.5-6h13.7c3.2,0,5.8,2.6,5.8,5.8c0,0.1,0,0.1,0,0.2V264.8z M456,233.6
	c0,2.9-2.2,5.2-5,5.4h-15.7c-2.9-0.1-5.2-2.5-5.3-5.4V133.2c0.1-3.4,2.9-6.2,6.3-6.2H450c3.4,0.1,6,2.9,6,6.2V233.6z M480,191.1
	c0,3.3-2.7,5.9-5.9,5.9c0,0-0.1,0-0.1,0h-6v-28h6c3.2-0.2,5.9,2.3,6,5.5c0,0.1,0,0.1,0,0.2V191.1z"/>
<path class="st0" d="M375.1,303H369v-23.6c0-9.9-7.9-18.4-17.9-18.4h-13.7c-2.2,0.1-4.4,0.6-6.4,1.4v-15.3c0-9.9-7.7-18.2-17.6-18.2
	h-13.7c-9.9,0.1-17.8,8.2-17.7,18c0,0,0,0.1,0,0.1V302H131v-54.8c0-9.9-7.6-18.2-17.5-18.2H99.8c-9.9,0.1-17.9,8.2-17.8,18.1
	c0,0,0,0,0,0.1v15.3c-2-0.8-4.1-1.3-6.3-1.4H62c-9.9,0-18,8.5-18,18.4V303h-6c-9.9-0.1-18,7.9-18,17.8c0,0,0,0.1,0,0.1v16.5
	c0,9.8,8,17.7,17.8,17.7c0.1,0,0.1,0,0.2,0h6v23.8c0,10,8,18.1,18,18.2h13.7c2.2-0.1,4.3-0.5,6.3-1.3V411c-0.1,9.8,7.8,17.9,17.6,18
	c0.1,0,0.1,0,0.2,0h13.7c9.9,0,17.5-8,17.5-18v-55h151v55c-0.2,9.8,7.6,17.8,17.4,18c0.1,0,0.2,0,0.3,0h13.7c9.8,0,17.7-8,17.6-17.7
	c0-0.1,0-0.2,0-0.3v-15c1.8,0.5,3.6,0.9,5.5,1h15.7c9.4-0.1,17-7.8,16.9-17.2V355h6.1c9.8,0.1,17.8-7.6,17.9-17.4c0-0.1,0-0.2,0-0.3
	v-16.5c0-9.8-7.9-17.8-17.7-17.9C375.2,303,375.1,303,375.1,303z M44,343h-6c-3.2,0.2-5.9-2.3-6-5.5c0-0.1,0-0.1,0-0.2v-16.5
	c0-3.3,2.7-5.9,5.9-5.9c0,0,0.1,0,0.1,0h6V343z M82,378c0,3.3-2.7,6-6,6c0,0,0,0,0,0H62c-3.3,0-6-2.7-6-6c0,0,0,0,0,0V279
	c0-3.3,2.7-6,6-6c0,0,0,0,0,0H76c3.3,0,6,2.7,6,6c0,0,0,0,0,0V378z M119,411c0,3.3-2.2,6-5.5,6H99.8c-3.2,0-5.8-2.6-5.8-5.8
	c0-0.1,0-0.1,0-0.2V247.2c-0.1-3.3,2.4-6,5.7-6.2c0,0,0.1,0,0.1,0h13.7c3.3,0,5.5,2.8,5.5,6.2V411z M282,344H131v-30h151V344z
	 M319,411c0.2,3.1-2.2,5.8-5.3,6c-0.1,0-0.2,0-0.3,0h-13.7c-3.1,0-5.7-2.6-5.7-5.7c0-0.1,0-0.2,0-0.3V247.2c0-3.3,2.3-6.2,5.7-6.2
	h13.7c3.3,0,5.6,2.8,5.6,6.2L319,411z M357,379.8c0.1,2.8-2.1,5.1-4.9,5.2h-15.7c-2.9-0.1-5.3-2.3-5.5-5.2V279.4
	c0.2-3.5,3-6.3,6.4-6.4h13.7c3.3,0,5.9,3.1,5.9,6.4L357,379.8z M381,337.3c0,3.1-2.5,5.7-5.6,5.7c-0.1,0-0.2,0-0.3,0H369v-28h6.1
	c3.2-0.1,5.8,2.5,5.9,5.7c0,0.1,0,0.1,0,0.2V337.3z"/>
<path class="st0" d="M142.4,332h6.3c3.3,0,6-2.7,6-6s-2.7-6-6-6h-6.3c-3.3,0-6,2.7-6,6S139,332,142.4,332z"/>
<path class="st0" d="M167.6,332h66c3.3,0,6-2.7,6-6s-2.7-6-6-6h-66c-3.3,0-6,2.7-6,6S164.3,332,167.6,332z"/>
</svg>
