<?xml version="1.0" encoding="utf-8"?>
<!-- Generator: Adobe Illustrator 25.0.0, SVG Export Plug-In . SVG Version: 6.00 Build 0)  -->
<svg version="1.1" id="Layer_1" xmlns="http://www.w3.org/2000/svg" xmlns:xlink="http://www.w3.org/1999/xlink" x="0px" y="0px"
	 viewBox="0 0 512 512" style="enable-background:new 0 0 512 512;" xml:space="preserve">
<style type="text/css">
	.st0{fill:#12426A;}
</style>
<path class="st0" d="M408,40.6H104c-24.3,0-44,19.7-44,44v205.1c0,24.3,19.7,44,44,44h97.8l22.4,57.1c-1.2-1.4-3.1-2.2-5-2.1
	c-27.8,2-52.9,6.7-70.8,13c-20.9,7.4-31.5,16.8-31.5,27.8c0,27.5,68.5,41.9,136.2,41.9c61,0,113.1-11.3,129.6-28.2
	c4.2-4.3,6.3-8.9,6.2-13.8c0-10.9-10.5-20.1-31.1-27.5c-17.7-6.3-42.7-10.9-70.2-13c-3.3-0.3-6.2,2.1-6.5,5.4
	c-0.3,3.3,2.1,6.2,5.4,6.5c0.1,0,0.1,0,0.2,0c61.5,4.6,90.1,19.7,90.1,28.5c0,0,0,0.1,0,0.1c0,1.6-0.9,3.3-2.8,5.2
	c-12,12.2-57.4,24.6-121.1,24.6c-34.2,0-66.3-3.7-90.4-10.3c-23.3-6.4-33.8-14.5-33.8-19.6c0-8.9,29-24.3,91.1-28.9
	c3.2-0.2,5.7-3,5.5-6.2l17.1,43.7c0.1,0.4,0.3,0.7,0.5,1c3.3,5.2,10.2,6.8,15.5,3.4c1.4-0.9,2.6-2.1,3.4-3.4c0.2-0.3,0.4-0.7,0.5-1
	l41-104.5H408c24.3,0,44-19.7,44-44V84.6C452,60.3,432.3,40.6,408,40.6z M440,289.7c0,17.7-14.3,32-32,32H299.6
	c-2.5,0-4.7,1.5-5.6,3.8l-41.3,105.2l-41.3-105.2c-0.9-2.3-3.1-3.8-5.6-3.8H104c-17.7,0-32-14.3-32-32V84.6c0-17.7,14.3-32,32-32
	h304c17.7,0,32,14.3,32,32V289.7z"/>
<path class="st0" d="M386,171.3c-3.3,0-6,2.7-6,6v24.2H132v-96.8c0-3.3-2.7-6-6-6s-6,2.7-6,6v175.3c0,3.3,2.7,6,6,6s6-2.7,6-6v-36.3
	h248v36.3c0,3.3,2.7,6,6,6s6-2.7,6-6V177.3C392,174,389.3,171.3,386,171.3z M132,231.8v-18.2h248v18.2H132z"/>
<path class="st0" d="M177.2,195.4c16.7,0,30.2-13.5,30.2-30.2c0-16.7-13.5-30.2-30.2-30.2c-16.7,0-30.2,13.5-30.2,30.2
	C147,181.9,160.5,195.4,177.2,195.4z M177.2,147.1c10,0,18.2,8.1,18.2,18.2s-8.1,18.2-18.2,18.2s-18.2-8.1-18.2-18.2
	C159,155.2,167.2,147.1,177.2,147.1z"/>
<path class="st0" d="M221.9,195.4H361c3.3,0,6-2.7,6-6c0-33.4-27.1-60.4-60.4-60.4h-84.7c-3.3,0-6,2.7-6,6v54.4
	C215.9,192.8,218.6,195.4,221.9,195.4z M227.9,141h78.7c24.4,0,45,18.2,48,42.4H227.9L227.9,141z"/>
</svg>
