<?xml version="1.0" encoding="utf-8"?>
<!-- Generator: Adobe Illustrator 25.0.0, SVG Export Plug-In . SVG Version: 6.00 Build 0)  -->
<svg version="1.1" id="Layer_1" xmlns="http://www.w3.org/2000/svg" xmlns:xlink="http://www.w3.org/1999/xlink" x="0px" y="0px"
	 viewBox="0 0 512 512" style="enable-background:new 0 0 512 512;" xml:space="preserve">
<style type="text/css">
	.st0{fill:#12426A;}
</style>
<path class="st0" d="M76.5,374h73.9c3.3,0,6-2.7,6-6s-2.7-6-6-6H76.5c-3.3,0-6,2.7-6,6S73.1,374,76.5,374z"/>
<path class="st0" d="M156.4,402c0-3.3-2.7-6-6-6H76.5c-3.3,0-6,2.7-6,6s2.7,6,6,6h73.9C153.7,408,156.4,405.3,156.4,402z"/>
<path class="st0" d="M76.5,340h73.9c3.3,0,6-2.7,6-6s-2.7-6-6-6H76.5c-3.3,0-6,2.7-6,6S73.1,340,76.5,340z"/>
<path class="st0" d="M361.5,362h73.9c3.3,0,6-2.7,6-6s-2.7-6-6-6l0,0h-73.9c-3.3,0-6,2.7-6,6S358.2,362,361.5,362z"/>
<path class="st0" d="M361.5,396h73.9c3.3,0,6-2.7,6-6s-2.7-6-6-6l0,0h-73.9c-3.3,0-6,2.7-6,6S358.2,396,361.5,396z"/>
<path class="st0" d="M361.5,328h73.9c3.3,0,6-2.7,6-6s-2.7-6-6-6l0,0h-73.9c-3.3,0-6,2.7-6,6S358.2,328,361.5,328z"/>
<path class="st0" d="M361.5,294h73.9c3.3,0,6-2.7,6-6s-2.7-6-6-6l0,0h-73.9c-3.3,0-6,2.7-6,6S358.2,294,361.5,294z"/>
<path class="st0" d="M205,206.2c-3.3,0-6,2.7-6,6v225.9c0,3.3,2.7,6,6,6s6-2.7,6-6V212.2C211,208.9,208.3,206.2,205,206.2z"/>
<path class="st0" d="M239,444.2c3.3,0,6-2.7,6-6V212.2c0-3.3-2.7-6-6-6s-6,2.7-6,6v225.9C233,441.5,235.7,444.2,239,444.2z"/>
<path class="st0" d="M272,444.2c3.3,0,6-2.7,6-6V212.2c0-3.3-2.7-6-6-6s-6,2.7-6,6v225.9C266,441.5,268.7,444.2,272,444.2z"/>
<path class="st0" d="M306,444.2c3.3,0,6-2.7,6-6V212.2c0-3.3-2.7-6-6-6s-6,2.7-6,6v225.9C300,441.5,302.7,444.2,306,444.2z"/>
<path class="st0" d="M481.7,458H467V241.8c-0.1-3.3-2.9-5.9-6.3-5.8H445v-29.3c0-3.2-2.7-5.8-5.9-5.8c0,0-0.1,0-0.1,0h-34v-19.5
	c0-3.3-2.7-6-6-6s-6,2.7-6,6V201h-34.9c-3.2-0.1-6,2.4-6.1,5.6c0,0,0,0.1,0,0.1V236h-10v-57.7c0-3.5-2.8-6.3-6.3-6.3H319v-8.8
	c0.1-14.9-11.9-27.1-26.9-27.2c-0.1,0-0.1,0-0.2,0h-31v-13c5.9,1.7,12.1,2.6,18.3,2.6c17.1,0,33.4-6.7,45.5-18.8
	c2.3-2.3,2.3-6.1,0-8.5l-37-37l12.7-12.7c9.4,5.2,21.2,1.8,26.4-7.6c5.2-9.4,1.8-21.2-7.6-26.4s-21.2-1.8-26.4,7.6
	c-3,5.4-3.2,12-0.6,17.6l-13,13l-37-37c-2.3-2.3-6.1-2.3-8.5,0c-25.1,25.1-25.1,65.8,0,90.9c4.6,4.4,9.7,8.2,15.2,11.3V136h-29
	c-14.9,0-27,12.1-27,27.1c0,0.1,0,0.1,0,0.2v8.8h-17.3c-3.1,0-5.7,2.5-5.7,5.7c0,0,0,0,0,0V298h-10v-19.3c-0.1-3.3-2.8-5.8-6.1-5.8
	c0,0,0,0-0.1,0H119v-15.5c0-3.3-2.7-6-6-6s-6,2.7-6,6V273H73c-3.2-0.1-5.9,2.4-6,5.6c0,0.1,0,0.1,0,0.2V298H51.2
	c-3.3-0.1-6.1,2.5-6.2,5.8V458H30.3c-3.5,0-6.3,2.8-6.3,6.3v29.6c0,3.3,2.7,6.1,6.1,6.1h451.9c3.3,0,6.1-2.7,6.1-6.1v-29.6
	C488,460.8,485.2,458,481.7,458z M309.7,24.5c4,0,7.3,3.3,7.3,7.3s-3.3,7.3-7.3,7.3c-4,0-7.3-3.3-7.3-7.3
	C302.5,27.7,305.7,24.5,309.7,24.5z M364,213h69v23h-69V213z M242.3,98.3c-18.8-18.8-20.5-48.7-4-69.5l73.5,73.5
	C291,118.8,261.1,117.1,242.3,98.3z M205,163.2c-0.1-8.3,6.5-15.1,14.8-15.2c0.1,0,0.1,0,0.2,0H292c8.3,0,15,6.7,15,15
	c0,0.1,0,0.1,0,0.2v8.8H205V163.2z M79,285h69v13H79V285z M57,310h113v148h-26v-22.9c0.1-3.2-2.4-6-5.6-6.1c0,0-0.1,0-0.1,0H88.5
	c-3.3,0-5.5,2.8-5.5,6.1V458H57V310z M132,441v17H95v-17H132z M476,488H36v-18h160c3.3,0,6-2.7,6-6s-2.7-6-6-6h-14V184h148v78
	c0,3.3,2.7,6,6,6s6-2.7,6-6v-14h113v210h-26v-34.9c0-3.3-2.3-6.1-5.6-6.1h-49.8c-3.3,0-5.6,2.8-5.6,6.1V458h-26V302c0-3.3-2.7-6-6-6
	s-6,2.7-6,6v156h-94c-3.3,0-6,2.7-6,6s2.7,6,6,6h240V488z M417,429v29h-37v-29H417z"/>
</svg>
