<?xml version="1.0" encoding="utf-8"?>
<!-- Generator: Adobe Illustrator 25.0.0, SVG Export Plug-In . SVG Version: 6.00 Build 0)  -->
<svg version="1.1" id="Layer_1" xmlns="http://www.w3.org/2000/svg" xmlns:xlink="http://www.w3.org/1999/xlink" x="0px" y="0px"
	 viewBox="0 0 512 512" style="enable-background:new 0 0 512 512;" xml:space="preserve">
<style type="text/css">
	.st0{fill:#12426A;}
</style>
<path class="st0" d="M411,239c8.5,6.6,15.7,14.7,21.3,23.8c1.7,2.8,5.4,3.8,8.2,2.1c2.8-1.7,3.8-5.4,2.1-8.2c0,0-0.1-0.1-0.1-0.1
	c-6.4-10.3-14.6-19.5-24.1-27c-2.6-2-6.4-1.5-8.4,1.1C408,233.2,408.5,236.9,411,239L411,239z"/>
<path class="st0" d="M391.2,227.2c2.1,0.9,4.2,1.9,6.3,3c2.9,1.6,6.6,0.4,8.1-2.5s0.4-6.6-2.5-8.1l0,0c-2.3-1.2-4.7-2.4-7.1-3.4
	c-3-1.3-6.6,0.1-7.9,3.1S388.2,225.8,391.2,227.2L391.2,227.2z"/>
<path class="st0" d="M494,415H93.4v-35.6c0-4.5-3.6-8.1-8.1-8.1H66V138.7c5.2-1.8,9.2-6.1,10.7-11.4l43.4,0v209.1
	c0,32.9,26.7,59.7,59.7,59.7s59.7-26.7,59.7-59.7V127.3l97.2,0v65.6c-37.4,13.1-64,46.5-68.3,85.9c0,0.2-0.1,0.5-0.1,0.7
	c-0.3,2.9-0.5,5.9-0.5,8.9c-0.8,56.9,44.6,103.7,101.4,104.7c0.5,0,1,0,1.5,0c56.9-0.1,103-46.3,102.9-103.2
	c-0.1-43.7-27.7-82.7-69-97.1v-65.7l78.9,0c3.3,0,6-2.7,6-6s-2.7-6-6-6l-78.9,0V85.9h1.5c8.8,0,15.9-7.1,15.9-15.9v-1.3
	c0-8.8-7.1-15.9-15.9-15.9h-70.9c-8.8,0-15.9,7.1-15.9,15.9V70c0,8.8,7.1,15.9,15.9,15.9h1.5v29.4l-97.2,0V81.6
	c8-1.2,14-8.1,14-16.3V64c0-9.1-7.4-16.4-16.5-16.5H122.6c-9.1,0-16.4,7.4-16.5,16.5v1.3c0,8.1,6,15,14,16.3v33.8l-44.5,0
	c-2-4.1-5.5-7.2-9.7-8.7l0-49.1c0-3.3-2.7-6-6-6l0,0c-3.3,0-6,2.7-6,6l0,0l0,49.4c-8.7,3.5-12.9,13.5-9.3,22.2
	c1.7,4.2,5.1,7.6,9.4,9.3v232.9H34.4c-4.5,0-8.1,3.6-8.1,8.1V415H18c-4.4,0-8,3.6-8,8v33.5c0,4.4,3.6,8,8,8h476c4.4,0,8-3.6,8-8V423
	C502,418.6,498.4,415,494,415L494,415z M461.5,290.2c-0.1,50.2-40.8,90.9-91.1,90.8s-90.9-40.8-90.8-91.1c0-0.4,0-0.9,0-1.3
	c0-1.7,0.1-3.4,0.2-5c7.6-3.4,32.7-11,74.1,11.4c13.1,7.1,27.8,10.8,42.7,10.7c12.6-0.1,25.1-2.4,37-6.7c9.7-3.4,19-7.9,27.8-13.3
	C461.5,287.3,461.5,288.7,461.5,290.2L461.5,290.2z M335.2,73.9c-2.1,0-3.9-1.7-3.9-3.9v-1.3c0-2.1,1.7-3.9,3.9-3.9H406
	c2.1,0,3.9,1.7,3.9,3.9V70c0,2.1-1.7,3.9-3.9,3.9H335.2z M343,203.5c3.3-1,5.6-4.1,5.6-7.6v-110h44v110c0,3.5,2.3,6.6,5.6,7.6
	c31.7,10,55.3,36.5,61.6,69.1c-9.5,6.4-19.7,11.6-30.5,15.4c-25.6,8.9-49,7.8-69.6-3.4c-37.6-20.4-64.1-18.2-77.9-14.3
	C288.9,238.7,312.2,213.2,343,203.5L343,203.5z M227.4,336.4c0,26.3-21.3,47.7-47.6,47.7s-47.7-21.3-47.7-47.6c0,0,0,0,0,0v-5.6
	l21.2,0.1h0c3.3,0,6-2.7,6-6c0-3.3-2.7-6-6-6l0,0l-21.2-0.1v-26.6l21.2,0.1h0c3.3,0,6-2.7,6-6c0-3.3-2.7-6-6-6l-21.2-0.1v-26.6
	l21.2,0.1h0c3.3,0,6-2.7,6-6c0-3.3-2.7-6-6-6l-21.2-0.1v-26.6l21.2,0.1h0c3.3,0,6-2.7,6-6c0-3.3-2.7-6-6-6l0,0l-21.2-0.1v-29.1
	l95.3,0L227.4,336.4z M227.4,121.1c0,0.1,0,0.1,0,0.2s0,0.1,0,0.2v40.3l-95.3,0v-40.4c0,0,0,0,0,0s0,0,0,0V81.8h95.3V121.1z
	 M118.1,65.3V64c0-2.5,2-4.5,4.5-4.5H237c2.5,0,4.5,2,4.5,4.5v1.3c0,2.5-2,4.5-4.5,4.5h-3c-0.2,0-0.4,0-0.5,0s-0.4,0-0.5,0H126.7
	c-0.2,0-0.4,0-0.5,0s-0.4,0-0.5,0h-3C120.1,69.8,118.1,67.8,118.1,65.3z M60.4,117.7c2.8,0,5,2.2,5,5c0,2.8-2.2,5-5,5s-5-2.2-5-5
	c0,0,0,0,0,0C55.3,119.9,57.6,117.7,60.4,117.7z M38.2,383.3h43.2V415H38.2L38.2,383.3z M490,452.5H22V427h468V452.5z"/>
<path class="st0" d="M307.6,296c-3.7,0-6.8,3-6.8,6.8c0,3.7,3,6.8,6.8,6.8c3.7,0,6.8-3,6.8-6.8c0,0,0,0,0,0
	C314.4,299,311.3,296,307.6,296z"/>
<circle class="st0" cx="363.1" cy="317" r="7"/>
<path class="st0" d="M328,335.3c-4.5,0-8.1,3.6-8.1,8.1c0,4.5,3.6,8.1,8.1,8.1c4.5,0,8.1-3.6,8.1-8.1c0,0,0,0,0,0
	C336,338.9,332.4,335.3,328,335.3z"/>
<path class="st0" d="M425.5,315.6c-4.7,0-8.6,3.8-8.6,8.6s3.8,8.6,8.6,8.6s8.6-3.8,8.6-8.6c0,0,0,0,0,0
	C434.1,319.5,430.2,315.6,425.5,315.6z M425.5,327.6c-1.9,0-3.4-1.5-3.4-3.4s1.5-3.4,3.4-3.4c1.9,0,3.4,1.5,3.4,3.4
	C428.9,326.1,427.4,327.6,425.5,327.6z"/>
<path class="st0" d="M391.4,352.3c-3.9,0-7,3.1-7,7c0,3.9,3.1,7,7,7c3.9,0,7-3.1,7-7c0,0,0,0,0,0
	C398.5,355.5,395.3,352.3,391.4,352.3z"/>
<path class="st0" d="M211.6,157.8L211.6,157.8c3.3,0,6-2.7,6-6c0,0,0,0,0,0l-0.2-36.2c0-3.3-2.7-6-6-6h0c-3.3,0-6,2.7-6,6
	c0,0,0,0,0,0l0.2,36.2C205.6,155.1,208.3,157.8,211.6,157.8L211.6,157.8z"/>
<path class="st0" d="M211.6,106.3c3.3,0,6-2.7,6-6v-6c0-3.3-2.7-6-6-6s-6,2.7-6,6v6C205.6,103.7,208.3,106.3,211.6,106.3z"/>
</svg>
