<?xml version="1.0" encoding="utf-8"?>
<!-- Generator: Adobe Illustrator 25.0.0, SVG Export Plug-In . SVG Version: 6.00 Build 0)  -->
<svg version="1.1" id="Layer_1" xmlns="http://www.w3.org/2000/svg" xmlns:xlink="http://www.w3.org/1999/xlink" x="0px" y="0px"
	 viewBox="0 0 512 512" style="enable-background:new 0 0 512 512;" xml:space="preserve">
<style type="text/css">
	.st0{fill:#12426A;}
</style>
<path class="st0" d="M128.7,205.7h110.5l11.3,11c3.2,3.1,8.3,3.1,11.5,0l11.3-11h109.1c11.2,0,20.3-9.1,20.4-20.4V30.4
	c0-11.2-9.1-20.4-20.4-20.4H273.7c-7.4,0-14.5,3.3-19.2,8.9c-4.8-5.7-11.8-8.9-19.2-8.9H128.7c-11.2,0-20.4,9.1-20.4,20.4v154.9
	C108.3,196.5,117.5,205.6,128.7,205.7z M260.5,35.2c0-7.3,5.9-13.2,13.2-13.2h108.7c4.6,0,8.4,3.7,8.4,8.4v154.9
	c0,4.6-3.8,8.4-8.4,8.4H271.7c-2.1,0-4.2,0.8-5.7,2.3l-3.9,3.8L260.5,35.2L260.5,35.2z M120.3,30.4c0-4.6,3.8-8.4,8.4-8.4h106.5
	c7.3,0,13.2,5.9,13.2,13.3c0,0,0,0,0,0l1.6,164.3l-3.6-3.5c-1.5-1.5-3.6-2.3-5.7-2.3H128.7c-4.6,0-8.4-3.7-8.4-8.4L120.3,30.4z"/>
<path class="st0" d="M179.9,53.3h44.9c3.3,0,6-2.7,6-6s-2.7-6-6-6h-44.9c-3.3,0-6,2.7-6,6S176.5,53.3,179.9,53.3z"/>
<path class="st0" d="M141,53.3h17.3c3.3,0,6-2.7,6-6s-2.7-6-6-6H141c-3.3,0-6,2.7-6,6S137.7,53.3,141,53.3z"/>
<path class="st0" d="M224.7,80.3h-10.4c-3.3,0-6,2.7-6,6s2.7,6,6,6h10.4c3.3,0,6-2.7,6-6S228,80.3,224.7,80.3z"/>
<path class="st0" d="M141,92.3h51.9c3.3,0,6-2.7,6-6s-2.7-6-6-6H141c-3.3,0-6,2.7-6,6S137.7,92.3,141,92.3z"/>
<path class="st0" d="M224.7,119.4h-62.1c-3.3,0-6,2.7-6,6c0,3.3,2.7,6,6,6h62.1c3.3,0,6-2.7,6-6S228,119.4,224.7,119.4z"/>
<path class="st0" d="M140.9,131.4h0.1c3.3,0,6-2.7,6-6s-2.7-6-6-6h-0.1c-3.3,0-6,2.7-6,6S137.6,131.4,140.9,131.4L140.9,131.4z"/>
<path class="st0" d="M224.7,158.4h-5.9c-3.3,0-6,2.7-6,6s2.7,6,6,6h5.9c3.3,0,6-2.7,6-6S228,158.4,224.7,158.4z"/>
<path class="st0" d="M197,158.4h-56c-3.3,0-6,2.7-6,6s2.7,6,6,6h56c3.3,0,6-2.7,6-6S200.3,158.4,197,158.4z"/>
<path class="st0" d="M359.2,53.3h9.2c3.3,0,6-2.7,6-6s-2.7-6-6-6h-9.2c-3.3,0-6,2.7-6,6S355.9,53.3,359.2,53.3z"/>
<path class="st0" d="M284.7,53.3H337c3.3,0,6-2.7,6-6s-2.7-6-6-6h-52.3c-3.3,0-6,2.7-6,6S281.4,53.3,284.7,53.3z"/>
<path class="st0" d="M368.4,80.3h-49c-3.3,0-6,2.7-6,6s2.7,6,6,6h49c3.3,0,6-2.7,6-6S371.7,80.3,368.4,80.3z"/>
<path class="st0" d="M284.7,92.3h12.9c3.3,0,6-2.7,6-6s-2.7-6-6-6h-12.9c-3.3,0-6,2.7-6,6S281.4,92.3,284.7,92.3z"/>
<path class="st0" d="M368.4,119.4h-16c-3.3,0-6,2.7-6,6c0,3.3,2.7,6,6,6h16c3.3,0,6-2.7,6-6S371.7,119.4,368.4,119.4L368.4,119.4z"
	/>
<path class="st0" d="M284.7,131.4h46.2c3.3,0,6-2.7,6-6s-2.7-6-6-6h-46.2c-3.3,0-6,2.7-6,6S281.4,131.4,284.7,131.4z"/>
<path class="st0" d="M368.4,158.4h-53.5c-3.3,0-6,2.7-6,6s2.7,6,6,6h53.5c3.3,0,6-2.7,6-6S371.7,158.4,368.4,158.4z"/>
<path class="st0" d="M284.7,170.4h8.7c3.3,0,6-2.7,6-6s-2.7-6-6-6h-8.7c-3.3,0-6,2.7-6,6S281.4,170.4,284.7,170.4z"/>
<path class="st0" d="M256,223.3c-29.4,0-53.2,23.8-53.2,53.2v24.1c0,29.4,23.8,53.2,53.2,53.2h0.3c29.4,0,53.2-23.8,53.2-53.2v-24.1
	c0-29.4-23.8-53.2-53.2-53.2H256z M297.4,276.6v24.1c0,22.8-18.5,41.2-41.2,41.2H256c-22.8,0-41.2-18.5-41.2-41.2v-24.1
	c0-22.8,18.5-41.2,41.2-41.2h0.3C279,235.4,297.4,253.8,297.4,276.6z"/>
<path class="st0" d="M394.5,253.6c-26.1,0-47.3,21.2-47.3,47.3V322c0,26.1,21.2,47.3,47.3,47.3h0.2c26.1,0,47.3-21.2,47.3-47.3V301
	c0-26.1-21.2-47.3-47.3-47.3L394.5,253.6z M430,301V322c0,19.5-15.8,35.3-35.3,35.3h-0.2c-19.5,0-35.3-15.8-35.3-35.3V301
	c0-19.5,15.8-35.3,35.3-35.3h0.2C414.2,265.7,430,281.5,430,301z"/>
<path class="st0" d="M428.1,373c-3.1-0.2-4.8,1.8-6.3,3.7c-11.9,14.6-33.4,16.8-48,4.8c-2.2-1.8-4.2-3.9-5.9-6.2
	c-1.2-1.6-3-2.5-5-2.4c-9.5,0.2-18.7,3-26.7,8.1c-10.4-12.6-25.6-20.3-41.9-21.3c-3.2-0.2-4.7,1.7-6.5,3.9c-13.9,17-39,19.6-56,5.7
	c-2.6-2.1-4.9-4.5-6.9-7.2c-1.2-1.6-3-2.5-5-2.4c-15.4,0.4-30.1,6.8-40.9,17.9c-1.1,1.2-2.2,2.4-3.2,3.6c-7.5-4.8-16.1-7.5-24.9-8.1
	c-3.2-0.2-4.8,1.8-6.3,3.7c-11.9,14.6-33.4,16.8-48,4.8c-2.2-1.8-4.2-3.9-5.9-6.2c-1.2-1.6-3-2.5-5-2.4
	c-28.6,0.7-51.3,24.1-51.3,52.7v46.7c0,3.3,2.7,6,6,6h121.7V496c0,3.3,2.7,6,6,6H344c3.3,0,6-2.7,6-6v-17.7h121.5c3.3,0,6-2.7,6-6
	v-46.7C477.5,397.8,455.9,374.8,428.1,373z M46.5,466.3v-40.7c0.1-20.9,15.9-38.3,36.7-40.5c16.6,19.3,45.7,21.6,65,5
	c1.7-1.5,3.4-3.1,4.9-4.9c5.7,0.8,11.2,2.7,16.1,5.8c-4.6,8.6-7,18.2-7,27.9v47.3H46.5z M338,490H174.2v-71
	c0-24.5,18.7-45,43.1-47.2c18.4,21.9,51.1,24.7,73,6.3c2.2-1.9,4.3-3.9,6.1-6.1c23.7,3,41.5,23.1,41.5,47V490z M465.5,466.3H350V419
	c0-9.8-2.4-19.4-7-28c5.3-3.3,11.2-5.3,17.4-5.9c16.6,19.3,45.7,21.6,65,5c1.8-1.5,3.4-3.1,4.9-4.9c20.2,2.7,35.2,20,35.3,40.3
	V466.3z"/>
<path class="st0" d="M117.3,369.4h0.2c26.1,0,47.3-21.2,47.3-47.3V301c0-26.1-21.2-47.3-47.3-47.3h-0.2C91.2,253.7,70,274.8,70,301
	V322C70,348.2,91.2,369.3,117.3,369.4z M82,301c0-19.5,15.8-35.3,35.3-35.3h0.2c19.5,0,35.3,15.8,35.3,35.3V322
	c0,19.5-15.8,35.3-35.3,35.3h-0.2C97.8,357.3,82,341.5,82,322L82,301z"/>
</svg>
