<?xml version="1.0" encoding="utf-8"?>
<!-- Generator: Adobe Illustrator 25.0.0, SVG Export Plug-In . SVG Version: 6.00 Build 0)  -->
<svg version="1.1" id="Layer_1" xmlns="http://www.w3.org/2000/svg" xmlns:xlink="http://www.w3.org/1999/xlink" x="0px" y="0px"
	 viewBox="0 0 512 512" style="enable-background:new 0 0 512 512;" xml:space="preserve">
<style type="text/css">
	.st0{fill:#12426A;}
</style>
<path class="st0" d="M444,414.6c1.1-1.6,1.4-3.6,0.7-5.4l-13.5-36.3c-0.9-2.3-3.1-3.9-5.6-3.9H86.4c-2.5,0-4.8,1.6-5.6,3.9
	l-13.5,36.2c-1.1,3,0.3,6.3,3.3,7.5c0.7,0.3,1.5,0.4,2.3,0.4h366.2C441,417.1,442.9,416.2,444,414.6z M81.6,405l9-24h330.8l9,24
	H81.6z"/>
<path class="st0" d="M108,157.1c-3.3,0-6,2.7-6,6v66.6c0,3.3,2.7,6,6,6s6-2.7,6-6v-66.6C114,159.8,111.3,157.1,108,157.1z"/>
<path class="st0" d="M108,136.2c-3.3,0-6,2.7-6,6v3.2c0,3.3,2.7,6,6,6s6-2.7,6-6v-3.2C114,138.8,111.3,136.2,108,136.2z"/>
<path class="st0" d="M256,54.5c3.3,0,6-2.7,6-6V23.2c0-3.3-2.7-6-6-6c-3.3,0-6,2.7-6,6v25.3C250,51.9,252.7,54.5,256,54.5z"/>
<path class="st0" d="M351.3,150h25.3c3.3,0,6-2.7,6-6s-2.7-6-6-6h-25.3c-3.3,0-6,2.7-6,6S348,150,351.3,150z"/>
<path class="st0" d="M160.7,138h-25.3c-3.3,0-6,2.7-6,6s2.7,6,6,6h25.3c3.3,0,6-2.7,6-6S164,138,160.7,138z"/>
<path class="st0" d="M325.2,80.6c1.6,0,3.1-0.6,4.2-1.8l19.8-19.7c2.3-2.3,2.3-6.1,0-8.5c-2.3-2.3-6.1-2.3-8.5,0L321,70.3
	c-2.3,2.3-2.3,6.1,0,8.5C322.1,80,323.6,80.6,325.2,80.6L325.2,80.6z"/>
<path class="st0" d="M182.5,78.8c2.3,2.3,6.1,2.3,8.5,0s2.3-6.1,0-8.5l-19.8-19.7c-2.3-2.3-6.1-2.3-8.5,0s-2.3,6.1,0,8.5L182.5,78.8
	z"/>
<path class="st0" d="M208,149.4c3.3,0,6-2.7,6-6c0-12.1,4.8-23.6,13.4-32.1c2.7-2.7,5.7-5,9-6.9c2.9-1.7,3.8-5.4,2.1-8.2
	s-5.4-3.8-8.2-2.1l0,0c-4.1,2.4-8,5.4-11.4,8.8c-10.9,10.7-17,25.4-17,40.6C202,146.7,204.7,149.4,208,149.4z"/>
<path class="st0" d="M248.7,99.3c0.4,0,0.8,0,1.2-0.1c1.8-0.4,3.6-0.6,5.5-0.8c3.3-0.3,5.8-3.1,5.5-6.5c-0.3-3.3-3.1-5.8-6.5-5.5
	c0,0,0,0,0,0c-2.3,0.2-4.6,0.5-6.9,1c-3.2,0.7-5.3,3.8-4.7,7.1C243.4,97.3,245.9,99.3,248.7,99.3z"/>
<path class="st0" d="M500.5,460L500.5,460l-44.4-101.1c-0.8-1.9-1.8-3.7-3.1-5.3c5.6-4.4,8.9-11.2,9-18.3V108.3
	c-0.2-14.5-11.9-26.2-26.4-26.3h-136c-25.8-19.5-61.5-19.5-87.3,0H76.4C61.9,82.1,50.2,93.8,50,108.3v227c0.1,7.4,3.6,14.4,9.5,18.8
	c-1.1,1.5-2,3.1-2.8,4.7L11.5,460.1h0c-0.3,0.8-0.5,1.6-0.5,2.5v8.7c0,13,10.5,23.7,23.6,23.8h442.9c13-0.1,23.6-10.7,23.6-23.8
	v-8.7C501,461.7,500.8,460.8,500.5,460z M213.4,96.9c23.7-23.5,62-23.4,85.5,0.3s23.4,62-0.3,85.5c-0.4,0.4-0.9,0.9-1.3,1.3
	c-10.9,10.1-17.2,24.4-17.3,39.3v0.7h-18v-49.8c1.2,0.5,2.5,0.7,3.8,0.7c5.7,0,8.5-4.2,10.1-6.4c0.2-0.4,0.6-0.8,0.8-1.2
	c3.3-0.4,5.6-3.4,5.2-6.7c-0.4-3-2.9-5.3-6-5.3c-5.7,0-8.5,4.2-10.1,6.4l-0.1,0.1c0-0.1-0.1-0.1-0.1-0.1c-1.5-2.2-4.3-6.4-10.1-6.4
	s-8.5,4.2-10.1,6.4c0,0-0.1,0.1-0.1,0.1l-0.1-0.1c-1.5-2.2-4.3-6.4-10.1-6.4c-3.3,0-6,2.7-6,6c0,3,2.3,5.6,5.3,6
	c0.3,0.3,0.6,0.8,0.8,1.2c1.5,2.2,4.3,6.4,10.1,6.4c1.5,0,3.1-0.3,4.5-1V224h-18v-0.7c0-14.8-6.1-28.9-16.9-39
	c-24.6-22.6-26.2-60.8-3.7-85.4C212.1,98.3,212.7,97.6,213.4,96.9L213.4,96.9z M224.1,255c-1.1-0.1-1.9-1.1-1.8-2.2
	c0.1-1,0.8-1.7,1.8-1.8h63.8c1,0.1,1.8,1,1.8,2c-0.1,1.1-0.9,1.9-2,2H224.1z M286.5,268.5c0,1-0.8,1.5-1.8,1.5h-57.4
	c-1,0-1.8-0.5-1.8-1.5s0.8-1.5,1.8-1.5h57.4C285.7,267,286.5,267.5,286.5,268.5z M221,239c-1,0-1.8-0.5-1.8-1.5s0.8-1.5,1.8-1.5
	h70.2c1,0,1.8,0.5,1.8,1.5s-0.8,1.5-1.8,1.5H221z M62,108.3c0-7.9,6.4-14.2,14.3-14.3h123.6c-2.8,3.4-5.3,7.1-7.4,11H94.3
	c-9.5,0-17.3,7.7-17.3,17.3l0,0V150c0,3.3,2.7,6,6,6l0,0c3.3,0,6-2.7,6-6v-27c0-3.3,2.7-6,6-6h92.2c-9,27.1-1.2,56.9,19.8,76.2
	c8.4,7.8,13.1,18.7,13.1,30.2v0.3c-7.2,0.5-12.9,6.5-12.9,13.8c0,3.8,1.6,7.5,4.4,10.1c-2.4,5.4-1.1,11.6,3.2,15.6
	c-0.8,1.7-1.2,3.6-1.2,5.6c0.2,7.5,6.4,13.4,13.9,13.4h57.1c7.7,0,14.2-6.3,14-13.9c0-1.8-0.4-3.5-1.2-5.1c4.3-4,5.6-10.2,3.2-15.5
	c2.8-2.6,4.4-6.2,4.4-10c-0.1-7.3-5.7-13.2-12.9-13.8v-0.3c0.1-11.6,4.9-22.6,13.4-30.5c20.7-19.3,28.3-48.9,19.4-75.8h92.9
	c2.9,0,5.3,2.4,5.3,5.3V318c0,3.3-2.7,5.9-6,6H95c-3.3,0-5.9-2.7-6-6V192c0-3.3-2.7-6-6-6l0,0c-3.3,0-6,2.7-6,6v126
	c0,9.9,8.1,17.9,18,18h322.8c9.5,0,17.3-7.7,17.3-17.3c0,0,0,0,0,0V122.3c0-9.5-7.7-17.3-17.3-17.3l0,0h-98.2
	c-2.2-3.9-4.7-7.6-7.5-11h123.5c8,0,14.4,6.5,14.4,14.4v226.9c0,6.4-5.2,11.7-11.7,11.7H73.9c-6.6,0-11.9-5.3-11.9-11.9V108.3z
	 M67.8,364c0.9-2,2.4-3.8,4.2-5l368.7-0.2c1.9,1.3,3.5,3.1,4.4,5.3l40.7,92.9H327.7l-8.2-24.8c-0.8-2.5-3.1-4.1-5.7-4.2H198.2
	c-2.6,0-4.9,1.7-5.7,4.2l-8.2,24.8h-158L67.8,364z M315.1,457H196.9l5.6-17h107L315.1,457z M489,471.2c0,6.4-5.1,11.7-11.6,11.8
	H34.6c-6.4-0.1-11.6-5.4-11.6-11.8V469h466V471.2z"/>
</svg>
