<?xml version="1.0" encoding="utf-8"?>
<!-- Generator: Adobe Illustrator 25.0.0, SVG Export Plug-In . SVG Version: 6.00 Build 0)  -->
<svg version="1.1" id="Layer_1" xmlns="http://www.w3.org/2000/svg" xmlns:xlink="http://www.w3.org/1999/xlink" x="0px" y="0px"
	 viewBox="0 0 512 512" style="enable-background:new 0 0 512 512;" xml:space="preserve">
<style type="text/css">
	.st0{fill:#12426A;}
</style>
<path class="st0" d="M122,390.1c-3.3,0-6,2.7-6,6v66.6c0,3.3,2.7,6,6,6s6-2.7,6-6v-66.6C128,392.8,125.3,390.1,122,390.1z"/>
<path class="st0" d="M122,369.2c-3.3,0-6,2.7-6,6v3.2c0,3.3,2.7,6,6,6s6-2.7,6-6v-3.2C128,371.8,125.3,369.2,122,369.2z"/>
<path class="st0" d="M413.6,335.4c-0.3-0.7-0.5-1.5-0.8-2.2c-7.3-16.5-21.7-29.5-39.5-35.7l-8.9-3.2c-20.6-7.1-41.8-12.1-63.4-15.1
	v-22.1c3.8-2.6,7.4-5.5,10.7-8.7c13.6-13,22-30.4,23.9-49.1c13.5-2.4,22.5-15.2,20.1-28.7c-0.1-0.5-0.2-1.1-0.3-1.6
	c-2-8-8.6-13.9-16.8-15.1l1.5-21.4c1.5-20.8-4.9-41.5-17.9-57.8c-4.2-5.2-9.1-9.9-14.4-13.9c-0.8-28.4-24.5-50.8-53-50
	c-27,0.8-48.9,22.3-50,49.4c-22.5,17-34.8,44.3-32.8,72.4l1.5,21.4c-8.2,1.1-14.9,7.1-16.8,15.1c-3.3,13.3,4.9,26.7,18.1,29.9
	c0.6,0.1,1.1,0.3,1.7,0.3c1.9,18.7,10.3,36.1,23.9,49.1c3.6,3.5,7.5,6.6,11.6,9.3v21.4c-21.8,2.9-43.2,8-63.9,15.1l-9.2,3.2
	c-17.8,6.1-32.2,19.1-39.5,35.7c-0.3,0.7-0.6,1.5-0.9,2.2c-3,7.8-4.5,16.2-4.4,24.6v23c0,3.3,2.7,6,6,6s6-2.7,6-6v-23
	c-0.1-6.9,1.1-13.7,3.6-20.1c0.2-0.6,0.5-1.2,0.7-1.8c6.3-13.8,18-24.3,32.4-29.2l9.1-3.2c11.7-4,23.7-7.4,35.8-10.1l8.3,63.6
	c0.4,3.3,3.4,5.6,6.7,5.2c0.6-0.1,1.2-0.2,1.7-0.5l23.6-10.7l5.3,21.8L222.7,489h-61.3l-3.2-11.1c-5.9-20.7-3.4-42.5,4.3-62.6
	c1.2-3.1-0.4-6.6-3.5-7.7c-0.1,0-0.1,0-0.2-0.1c-3.1-1-6.4,0.6-7.6,3.6c-9.5,22.5-11,47.5-4.3,71l2,7H106v-64c0-3.3-2.7-6-6-6
	s-6,2.7-6,6v70c0,3.3,2.7,6,6,6h312.2c3.2,0,5.8-2.6,5.8-5.8V360C418.1,351.6,416.6,343.3,413.6,335.4L413.6,335.4z M312.6,293.3
	l-7.4,56.3l-38.7-17.5l21.9-21c5.6-5.4,9.5-12.3,11.1-19.9C304,291.9,308.3,292.6,312.6,293.3z M256.1,325.6l-24-23.1
	c-5.3-5.1-8.2-12.1-8.2-19.5v-18.7c20.8,9,44.4,8.9,65-0.4v19c-0.1,7.4-3.2,14.4-8.6,19.5L256.1,325.6z M256.2,23
	c17.9,0,33.6,12,38.2,29.3c-0.7-0.4-1.4-0.8-2-1.1c-16.5-8.9-36.5-10.5-57.9-4.5c-5.7,1.6-11.3,3.7-16.6,6.1
	C222.3,35.3,238.1,23,256.2,23z M286.7,61.7c11.4,6.2,20,12.9,26.1,20.6c11.2,14,16.6,31.7,15.4,49.5l-1.5,21
	c-18.1-5.5-23.4-25.2-23.6-26.1c-0.6-2.5-2.8-4.4-5.5-4.5c-29.3-1.8-47.4-6.8-58.7-16.4c-10.2-8.6-15.7-21.1-21.2-39.5
	C228.4,60.6,259.4,46.9,286.7,61.7z M207.4,73.7c3.5,11.1,7.3,20.6,12.5,28.5c-14.9,7.5-27.2,19.1-35.7,33.4l-0.3-3.8
	C182.4,109.9,191,88.4,207.4,73.7z M208.7,239.9c-12.7-12.1-20.1-28.7-20.6-46.2c-0.1-3.2-2.8-5.8-6-5.7h-1.3
	c-7.1,0-12.8-5.8-12.8-12.9c0-1,0.1-2.1,0.4-3.1c0.9-3.7,4.4-6.3,8.2-6.2c0.6,0,1.1,0,1.7,0.1c0.4,0,0.7,0.1,1.1,0h0.6
	c1.7,0,3.2-0.6,4.4-1.8c0.7-0.8,1.2-1.7,1.5-2.7c9.3-28.9,27.2-42.9,41.9-49.7c12.6,12.5,31.8,19.6,65.2,22.1
	c3.4,9,13.6,29.2,38.3,32c0.4,0.1,0.7,0.1,1.1,0.1h0.5c0.4,0,0.7,0,1.1-0.1c4.4-1,8.8,1.7,9.9,6.1c0.2,1,0.4,2.1,0.4,3.2
	c0,7.1-5.8,12.8-12.8,12.9H330c-3.2-0.1-5.9,2.5-6,5.7c-0.6,17.5-8,34.1-20.6,46.3C276.9,265.4,235.1,265.4,208.7,239.9L208.7,239.9
	z M206.8,349.7l-7.4-56.4c4.3-0.8,8.7-1.5,13.1-2.1c1.7,7.6,5.5,14.5,11.1,19.9l21.9,21L206.8,349.7z M270.1,397.3l1.3,22.1
	l-32.9,29.6l2.4-25.5L270.1,397.3z M242.4,406l2.3-25.4l24.3,0.4l0.1,1L242.4,406z M234.8,489l2.1-22.3l35.5-31.9l1.3,22.1L238,489
	H234.8z M256,489l18.6-16.7l1,16.7H256z M270.3,369.1l-26.3-0.4l-5-20.4l17-7.7l20.1,9.1L270.3,369.1z M406,489h-42.3l2-7
	c6.1-21.5,5.4-44.3-2.1-65.3c-1.1-3.1-4.5-4.8-7.6-3.7c-3.1,1.1-4.8,4.5-3.7,7.6c6.7,18.7,7.3,39,1.9,58.1l-2.9,10.3h-63.6
	l-6.8-113.1l6.4-21.2l20.5,9.3c3,1.4,6.6,0,7.9-3c0.2-0.5,0.4-1.1,0.5-1.7l8.3-63.6c12.1,2.6,24.1,6,35.8,10l9.1,3.2
	c14.6,5.1,26.5,15.7,32.4,29.2c0.3,0.6,0.4,1.2,0.7,1.8c2.5,6.4,3.7,13.3,3.6,20.1L406,489z"/>
</svg>
