<?xml version="1.0" encoding="utf-8"?>
<!-- Generator: Adobe Illustrator 25.0.0, SVG Export Plug-In . SVG Version: 6.00 Build 0)  -->
<svg version="1.1" id="Layer_1" xmlns="http://www.w3.org/2000/svg" xmlns:xlink="http://www.w3.org/1999/xlink" x="0px" y="0px"
	 viewBox="0 0 512 512" style="enable-background:new 0 0 512 512;" xml:space="preserve">
<style type="text/css">
	.st0{fill:#12426A;}
</style>
<path class="st0" d="M127.9,316c-14.8,0-26.8,12-26.8,26.8c0,14.8,12,26.8,26.8,26.8s26.8-12,26.8-26.8c0,0,0,0,0,0
	C154.6,328,142.7,316,127.9,316z M127.9,357.6c-8.2,0-14.8-6.6-14.8-14.8c0-8.2,6.6-14.8,14.8-14.8s14.8,6.6,14.8,14.8
	C142.7,351,136,357.6,127.9,357.6z"/>
<path class="st0" d="M384.1,369.6c14.8,0,26.8-12,26.8-26.8s-12-26.8-26.8-26.8s-26.8,12-26.8,26.8l0,0
	C357.4,357.6,369.3,369.6,384.1,369.6z M384.1,328c8.2,0,14.8,6.6,14.8,14.8s-6.6,14.8-14.8,14.8s-14.8-6.6-14.8-14.8c0,0,0,0,0,0
	C369.3,334.6,376,328,384.1,328z"/>
<path class="st0" d="M489.6,117H482v-6.5c0-10.3-10.7-18.5-24.8-18.5H439V78.7c0.1-21.3-17.2-38.6-38.5-38.7c-0.1,0-0.1,0-0.2,0H359
	V28c0-3.3-2.7-6-6-6H159c-3.3,0-6,2.7-6,6v12h-41.3C90.4,39.9,73.1,57.1,73,78.4c0,0.1,0,0.1,0,0.2V92H54.8
	C40.7,92,30,100.2,30,110.5v6.5h-7.6c-5.6-0.1-10.3,4.4-10.4,10.1c0,0,0,0.1,0,0.1V178c0,5.6,4.6,10.1,10.2,10c0.1,0,0.1,0,0.2,0h29
	c5.7,0,10.6-4.3,10.6-10v-50.8c-0.1-5.7-4.9-10.3-10.6-10.2H42v-6.5c0-2.5,4.9-6.5,12.8-6.5H73v290.9c-0.1,20.4,15.6,37.4,36,39v40
	c0,8.8,7.1,16,15.9,16.1h33.4c8.8-0.1,15.8-7.3,15.7-16.1V434h161v39.9c0,8.8,7.1,16,16,16.1h33.4c8.8-0.1,15.7-7.3,15.6-16.1V434
	h0.3c21.5-0.1,38.8-17.6,38.7-39.1V104h18.2c7.9,0,12.8,4,12.8,6.5v6.5h-9.4c-5.7-0.1-10.5,4.4-10.6,10.2V178c0,5.7,4.9,10,10.6,10
	h29c5.6,0.2,10.2-4.2,10.4-9.8c0-0.1,0-0.1,0-0.2v-50.8c0-5.6-4.6-10.2-10.3-10.2C489.7,117,489.7,117,489.6,117z M50,129v47H24v-47
	H50z M165,34h182v32H165V34z M162,473.9c0.1,2.1-1.6,4-3.7,4.1h-33.4c-2.2-0.1-3.9-1.9-3.9-4.1V434h41V473.9z M388,473.9
	c0.1,2.1-1.5,3.9-3.6,4.1c0,0,0,0,0,0H351c-2.2-0.1-3.9-1.9-4-4.1V434h41V473.9z M427,394.9c0.1,14.9-11.9,27-26.7,27.1H111.7
	c-14.9-0.1-26.8-12.2-26.7-27.1V261h24c3.3,0,6-2.7,6-6c0-3.3-2.7-6-6-6H85V110h165v139H149c-3.3,0-6,2.7-6,6c0,3.3,2.7,6,6,6h278
	V394.9z M427,249H262V110h165V249z M427,98H85V78.7C84.9,64,96.8,52.1,111.5,52c0.1,0,0.2,0,0.3,0H153v20c0,3.3,2.7,6,6,6h194
	c3.3,0,6-2.7,6-6V52h41.3c14.7-0.1,26.6,11.7,26.7,26.4c0,0.1,0,0.2,0,0.3V98z M488,176h-26v-47h26V176z"/>
<path class="st0" d="M166,306v62c0,3.3,2.7,6,6,6h167c3.3,0,6-2.7,6-6v-62c0-3.3-2.7-6-6-6H172C168.7,300,166,302.7,166,306z
	 M178,312h156v9H178V312z M178,333h156v9H178V333z M178,354h156v8H178V354z"/>
<path class="st0" d="M105.2,149l13.1-13.1c2.3-2.3,2.3-6.1,0-8.5c-2.3-2.3-6.1-2.3-8.5,0l0,0l-13.1,13.1c-2.3,2.3-2.3,6.1,0,8.5
	C99.1,151.3,102.9,151.3,105.2,149z"/>
<path class="st0" d="M145.2,124.8c-2.3-2.3-6.1-2.3-8.5,0c0,0,0,0,0,0l-38,38c-2.3,2.3-2.3,6.1,0,8.5c2.3,2.3,6.1,2.3,8.5,0l0,0
	l38-38C147.6,130.9,147.6,127.1,145.2,124.8C145.3,124.8,145.3,124.8,145.2,124.8z"/>
<path class="st0" d="M408,222.4c3.3,0,6-2.7,6-6v-60.6c0-3.3-2.7-6-6-6s-6,2.7-6,6v60.6C402,219.7,404.7,222.4,408,222.4z"/>
<path class="st0" d="M408,139.4c3.3,0,6-2.7,6-6v-5.6c0-3.3-2.7-6-6-6s-6,2.7-6,6v5.6C402,136.7,404.7,139.4,408,139.4z"/>
</svg>
