<?xml version="1.0" encoding="utf-8"?>
<!-- Generator: Adobe Illustrator 25.0.0, SVG Export Plug-In . SVG Version: 6.00 Build 0)  -->
<svg version="1.1" id="Layer_1" xmlns="http://www.w3.org/2000/svg" xmlns:xlink="http://www.w3.org/1999/xlink" x="0px" y="0px"
	 viewBox="0 0 249.9 344.6" style="enable-background:new 0 0 249.9 344.6;" xml:space="preserve">
<style type="text/css">
	.st0{fill:#11426A;}
</style>
<path class="st0" d="M126.7,125.3c-7.1,2.4-11.7,5.7-13.7,13.3c-4.1,15.8-9.2,31.3-14.3,46.7c-1.7,5.6-6.5,9.7-12.3,10.5
	c-3.4,0.5-4.2,1.9-4.9,4.9c-7.8,37-15.7,73.9-23.7,110.9c-0.4,1.8-0.8,3.5-1.2,5.3c-17.9-10.2-29-7.1-36.9,10
	c-13.2,0-21.9-10.3-19.2-23c5.1-24.1,10.2-48.2,15.5-72.3c2.4-11.1,11.8-17,22.9-14.7c9.5,1.9,18.9,4,28.7,6.1
	c0.5-1.2,1-2.4,1.3-3.6c1.4-6.2,2.5-12.4,4.1-18.5c1.1-4.3,1-7.5-2.7-11c-4.7-4.4-4.6-10.5-2.9-16.3c5.5-18.2,11-36.3,16.7-54.4
	c2.3-7.6,7.6-13.9,14.6-17.6c13.9-7.5,27.9-14.8,42-22.1c2.6-1.4,5.4-2.5,8.2-3.5c19.3-6.5,37.5,7.6,35.9,28
	c-0.7,9-2.3,17.8-3.6,26.7c-2.7,19.5-5.5,38.9-8.2,58.4c-0.8,5.8,1.1,10.4,5.5,14.2c8.7,7.5,17.4,15,26.1,22.6
	c6.4,5.3,10.4,12.9,11,21.2c2,25.2,3.8,50.5,5.5,75.8c0.8,11.8-7.4,21.1-18.6,21.8s-20.6-7.2-21.5-18.4c-1.8-22.2-3.4-44.5-4.9-66.8
	c0-3.3-1.6-6.4-4.2-8.4c-11.9-10-23.1-20.7-35.4-30.1c-16.9-12.8-19.9-29.3-16.3-48.9C123,156.6,124.5,141.1,126.7,125.3z"/>
<path class="st0" d="M119.1,217.2c10.1,8.8,19.8,17.3,29.7,25.7c2.3,1.9,3.2,3.5,2.1,6.7c-8.8,26.9-17.4,53.8-26.1,80.7
	c-3.2,9.9-11.9,15.3-22,14.1c-9.3-1.1-16.5-8.6-17.3-17.9c-0.3-2.8,0-5.7,0.9-8.4c10.6-33.3,21.3-66.6,32.1-99.8
	C118.6,217.9,118.8,217.5,119.1,217.2z"/>
<path class="st0" d="M204.8,32.2c0.1,17.9-14.4,32.4-32.2,32.5c-17.9,0.1-32.4-14.4-32.5-32.2S154.4,0.1,172.3,0c0,0,0.1,0,0.1,0
	c17.8-0.1,32.3,14.2,32.4,31.9C204.8,32,204.8,32.1,204.8,32.2z"/>
<path class="st0" d="M191.8,120.8c17.9,13.8,35,26.7,51.9,39.9c7.1,5.7,8.3,16.1,2.7,23.2c-6,7.3-15.8,8.6-23.6,2.8
	c-11.5-8.7-22.9-17.6-34.2-26.4c-1-0.7-1.6-1.9-1.7-3.1C188.3,145.3,190,133.5,191.8,120.8z"/>
<path class="st0" d="M53,332.5c0,6.7-5.4,12.1-12.1,12.1c-0.1,0-0.3,0-0.4,0c-6.8,0-12.3-5.5-12.3-12.3c0-6.8,5.5-12.3,12.3-12.3
	c0.2,0,0.3,0,0.5,0c6.7,0,12.1,5.4,12.1,12.1C53.1,332.2,53.1,332.4,53,332.5z"/>
</svg>
