<svg id="Layer_1" data-name="Layer 1" xmlns="http://www.w3.org/2000/svg" viewBox="0 0 500 500"><defs><style>.cls-1{fill:#32487a;}</style></defs><title>Untitled-1</title><path class="cls-1" d="M404.27,401.73a24.19,24.19,0,0,1-18.7,23.54l-2.89.69,0,14.43h-6.82V426l-2.9-.69a24.22,24.22,0,0,1-18.64-23.59v-4.09h6.82v4.1a17.5,17.5,0,0,0,17.46,17.49H380a17.47,17.47,0,0,0,5.56-34.05L371,380.25a24.25,24.25,0,0,1,2.11-46.61L376,333l0-14.43h6.82l0,14.42,2.89.69a24.22,24.22,0,0,1,18.38,20l-6.86.32A17.5,17.5,0,0,0,380,339.73h-1.36a17.47,17.47,0,0,0-5.55,34l14.56,4.88A24.27,24.27,0,0,1,404.27,401.73Z"/><path class="cls-1" d="M383.13,440.86h-7.77l0-14.52-2.54-.6a24.68,24.68,0,0,1-19-24.05v-4.57h7.77v4.57a17,17,0,0,0,17,17H380a17,17,0,0,0,5.41-33.13l-14.55-4.88A24.72,24.72,0,0,1,373,333.18l2.54-.6,0-14.53h7.76l0,14.52,2.53.61a24.63,24.63,0,0,1,18.74,20.39l.08.51-7.79.36-.08-.41A17,17,0,0,0,380,340.2h-1.36a17,17,0,0,0-5.4,33.13l14.56,4.89a24.72,24.72,0,0,1-2.16,47.51l-2.53.6Zm-6.82-.95h5.88V425.59l3.26-.78a23.77,23.77,0,0,0,2.08-45.7L373,374.23a17.95,17.95,0,0,1,5.7-35H380a18,18,0,0,1,17.55,14.21l5.92-.27a23.69,23.69,0,0,0-17.94-19.1l-3.25-.78,0-14.32h-5.88l0,14.33-3.26.77a23.77,23.77,0,0,0-2.07,45.7l14.55,4.88a17.95,17.95,0,0,1-5.71,35h-1.36a18,18,0,0,1-17.93-18v-3.62h-5.88v3.62a23.75,23.75,0,0,0,18.28,23.13l3.27.78Z"/><path class="cls-1" d="M469.25,181.67l0-33.8L335.59,40.63a44.4,44.4,0,0,0-55.49-.07l-134,106.91,0,33.8,28.75,0,0,40.62-6.42-6.32A68,68,0,0,0,52.53,264l-.12,100-1.63,1.13a46.54,46.54,0,0,0-20,38.14l-.08,65.44,179.36.23.08-65.46a46.22,46.22,0,0,0-2.76-15.76l-1.8-5.06,84.13.11.26,3.48A89.63,89.63,0,1,0,441.48,315l-1.16-1.12.17-132.21ZM167.7,139,284.37,45.88a38.5,38.5,0,0,1,46.94.06l116.45,93.4,8.4,6.74-31.44,0-1-.81L321.6,64.41a22.91,22.91,0,0,0-27.59,0l-101.47,80.5-1,.82-32.23,0Zm246,7-211.28-.27,8.49-6.72,87.31-69.27a15.58,15.58,0,0,1,9.6-3.25,15.36,15.36,0,0,1,9.54,3.26l87.79,69.49ZM59.35,264a61.3,61.3,0,0,1,122.59.16l-.12,96.1L177,358.84a45.73,45.73,0,0,0-8.18-1.68l-21.46-2.41-2.55-.29L144.1,352l-2.33-8.54-.7-2.55,2.17-1.53A39.45,39.45,0,0,0,160,307.28l0-39.35h-3.41a88.24,88.24,0,0,1-39.31-9.32L106,253,81.28,269.42l0,37.77a39.48,39.48,0,0,0,16.64,32.12l2.15,1.54-.7,2.55L97,351.93l-.69,2.47-2.55.28L72.26,357a46.45,46.45,0,0,0-8.17,1.66l-4.86,1.43ZM182,234.69l-.38-.78.07-52.6,36.31.05-.19,151.35-29.12,0,.08-68.49A67.36,67.36,0,0,0,182,234.69ZM103.35,354.41l1.85-6.71,1-3.67,3.65,1a38.33,38.33,0,0,0,21.34,0l3.67-1,1,3.67,1.83,6.71.57,2.13-17.77,17.73-2.67-2.67-13.52-13.55-1.55-1.55ZM88.06,307.19l0-34.12L89.78,272l14.91-9.9,1.82-1.22,2,1,5.72,2.86a95.76,95.76,0,0,0,35.47,9.79l3.49.27,0,32.53a32.53,32.53,0,1,1-65.06-.08Zm15.72,60,9.23,9.25,2.67,2.68-14.49,14.46-1.2-7.25-2.62-15.86-1.92-11.64Zm9,24.4,5-5,2.67-2.67,9.16,9.18-.52,2.08-3.42,13.6-.72,2.86h-9.06l-.71-2.86-3.39-13.61-.51-2.08ZM128,381.82l-2.67-2.68,2.68-2.67,9.26-9.23,8.34-8.33-1.95,11.62L141,386.39l-1.22,7.24ZM109.68,416l-6.16,42.75-.46,3.24-65.52-.08.07-58.63A39.68,39.68,0,0,1,73,363.82l12.5-1.37,3.56-.39.59,3.53,7,42.17,4.35-4.32,4.72-4.72,1.61,6.49,2.32,9.32.18.72Zm.28,46,.61-4.31,5.19-35.95.47-3.24h8.45l.46,3.25,5.1,36,.61,4.31Zm93.3.12L137.74,462l-.46-3.24L131.22,416l-.11-.73.18-.72,2.35-9.32,1.62-6.48,4.72,4.73,4.32,4.34,7.09-42.16.59-3.53,3.55.4,12.51,1.4a39.71,39.71,0,0,1,35.29,39.53Zm86.47-86.17-88.62-.11L200,374.4a46.41,46.41,0,0,0-9.72-9.11l-1.61-1.13,0-24.67,110.13.14-2.2,5.23a89.15,89.15,0,0,0-6.6,27.59Zm-65.11-43.21.19-151.35,57.89.07-.19,151.35Zm64.71.08.19-151.35,36.31,0-.16,126.23-1.44,1.13a89.9,89.9,0,0,0-20.3,22.23l-1.12,1.73Zm172.85,46.76a82.87,82.87,0,1,1-82.75-83A83,83,0,0,1,462.18,379.56ZM332.5,302.81l.15-121.31,57.89.08-.14,108.88-4.08-.33c-2.56-.2-4.69-.35-6.89-.36A88.5,88.5,0,0,0,338,299.93Zm64.72-11.2.13-110,36.33,0-.16,126.18-5.82-3.75a89.44,89.44,0,0,0-27.57-11.76ZM152.92,174.46l0-21.93,309.52.38,0,21.93Z"/><path class="cls-1" d="M307.79,88.38a17.79,17.79,0,1,0,17.77,17.81A17.81,17.81,0,0,0,307.79,88.38Zm0,28.75a11,11,0,1,1,11-10.94A11,11,0,0,1,307.75,117.13Z"/></svg>