<svg id="Layer_1" data-name="Layer 1" xmlns="http://www.w3.org/2000/svg" viewBox="0 0 500 500"><defs><style>.cls-1{fill:#32487a;}</style></defs><title>Untitled-1</title><circle class="cls-1" cx="178.81" cy="167.74" r="4.96"/><circle class="cls-1" cx="219.52" cy="167.74" r="4.96"/><path class="cls-1" d="M67.22,469h-34a2.84,2.84,0,0,0,0,5.67h34a2.84,2.84,0,0,0,0-5.67Z"/><path class="cls-1" d="M481.77,469h-34a2.84,2.84,0,0,0,0,5.67h34a2.84,2.84,0,0,0,0-5.67Z"/><path class="cls-1" d="M428.47,469h-342a2.84,2.84,0,1,0,0,5.67h342a2.84,2.84,0,1,0,0-5.67Z"/><path class="cls-1" d="M33.19,453.91H481.77a2.84,2.84,0,0,0,0-5.67H425V358.93h16.51a2.83,2.83,0,0,0,2.83-2.83V322.63a2.84,2.84,0,0,0-2.83-2.84H387.19a66.71,66.71,0,0,0-107.57-78.36,53.67,53.67,0,0,0-42.13-20.52H221.55l-7.76-3.12v-4.9A54.14,54.14,0,0,0,248,167.32a16.92,16.92,0,0,0,.22-31.54v-6.9a54,54,0,0,0-76.7-49,1.19,1.19,0,0,0-.16-.08A38.36,38.36,0,0,0,124.66,98.4a34.38,34.38,0,0,0-23,32.44v88.87a2.83,2.83,0,0,0,2.83,2.83,34.4,34.4,0,0,0,34.36-34.36V168.34c.51,0,1,.08,1.55.08h.13a54.14,54.14,0,0,0,34.11,44.48v4.9l-7.76,3.12H150.93a53.63,53.63,0,0,0-53.56,53.57v45.31H73.48a2.84,2.84,0,0,0-2.83,2.84V356.1a2.83,2.83,0,0,0,2.83,2.83H90v89.31H33.19a2.84,2.84,0,0,0,0,5.67Zm208.71-5.67V413.55a62.41,62.41,0,0,1,62.34-62.34H357a62.41,62.41,0,0,1,62.34,62.34v34.69ZM419.3,386.4a68.51,68.51,0,0,0-21.86-27.47H419.3Zm19.34-60.94v27.8H388.4a67.57,67.57,0,0,0-30.95-7.72,67.14,67.14,0,0,0,25.76-20.09Zm-108-102.09a61.08,61.08,0,1,1-61.08,61.08A61.15,61.15,0,0,1,330.6,223.37Zm-107.3,3.21h14.19A48,48,0,0,1,276,246.08a66.53,66.53,0,0,0-2,73.71h-13.7V286.34a2.83,2.83,0,0,0-5.66,0v33.45H214.31l-10.43-56.93,6.37-6.4,3.17,2.15a2.76,2.76,0,0,0,1.59.49,2.83,2.83,0,0,0,2.79-2.33Zm-33.7,33.33L183,253.23l11.26-7.63,11.26,7.63-6.65,6.68a2.85,2.85,0,0,0-.78,2.51l10.51,57.37H179.87l10.51-57.37A2.88,2.88,0,0,0,189.6,259.91Zm23.4-8.43-14.75-10,13.67-18.34,5.82,2.34Zm40.24-100a11.33,11.33,0,0,1-5,9.35V142.16a11.22,11.22,0,0,1,5,9.34Zm-59-71a48.41,48.41,0,0,1,48.35,48.35v14.6c-28.11-.33-46.3-5.5-56.71-9.86-11.59-4.85-16.25-9.76-16.28-9.8a2.85,2.85,0,0,0-2.39-.9,2.81,2.81,0,0,0-2.14,1.37l-14.49,24.39h-4.7v-19.8a48.41,48.41,0,0,1,48.36-48.35ZM158.7,83.31a33.29,33.29,0,0,1,5.74.51,54,54,0,0,0-24.25,45.05v5.72a16.91,16.91,0,0,0-7.1,1.66A32.65,32.65,0,0,1,158.7,83.31ZM133.16,188.18a28.73,28.73,0,0,1-25.85,28.55v-85.9A28.72,28.72,0,0,1,121.73,106a37.87,37.87,0,0,0,6.73,33.55,16.88,16.88,0,0,0,4.7,27.27Zm-4-36.68a11.26,11.26,0,0,1,11.06-11.24v22.48A11.26,11.26,0,0,1,129.13,151.5Zm16.72,11.06v-8.22h6.32A2.82,2.82,0,0,0,154.6,153l13.56-22.83c7.06,5.56,28.38,18.49,74.4,19v13.42a48.36,48.36,0,0,1-96.71,0Zm48.36,54a53.65,53.65,0,0,0,13.91-1.83v4l-13.91,18.67-13.92-18.67v-4A53.78,53.78,0,0,0,194.21,216.58Zm-17.72,6.57,13.67,18.34-14.74,10-4.74-26ZM103,274.47a47.94,47.94,0,0,1,47.89-47.89h14.18l5.51,30.19a2.83,2.83,0,0,0,2.79,2.33,2.79,2.79,0,0,0,1.59-.49l3.17-2.15,6.36,6.4-10.42,56.93H133.77V286.34a2.84,2.84,0,0,0-5.67,0v33.45H103Zm-26.72,51H278a67.14,67.14,0,0,0,25.76,20.09,67.61,67.61,0,0,0-31.4,7.95,2.82,2.82,0,0,0-1.13-.24H76.32Zm19.34,33.47h168.1a68,68,0,0,0-27.53,54.62v34.69H95.66Z"/><path class="cls-1" d="M200.53,183.83a2.84,2.84,0,0,0,2.84-2.84V172.7a2.84,2.84,0,1,0-5.67,0V181A2.84,2.84,0,0,0,200.53,183.83Z"/><path class="cls-1" d="M210.25,195.88a2.83,2.83,0,1,0-4.26-3.74,7.24,7.24,0,0,1-10.91,0,2.84,2.84,0,1,0-4.27,3.74,12.92,12.92,0,0,0,19.44,0Z"/><path class="cls-1" d="M187.2,153.48h-14a2.83,2.83,0,1,0,0,5.66h14a2.83,2.83,0,1,0,0-5.66Z"/><path class="cls-1" d="M213.86,159.14h14a2.83,2.83,0,1,0,0-5.66h-14a2.83,2.83,0,0,0,0,5.66Z"/><path class="cls-1" d="M282.73,178.21a2.82,2.82,0,0,0,3.11,3.11l29.28-3.07a82.1,82.1,0,1,0-29.32-29.32ZM302.6,53.37A76.43,76.43,0,1,1,317.23,172.9a2.83,2.83,0,0,0-1.47-.4h-.29l-26.74,2.81,2.81-26.73a2.77,2.77,0,0,0-.39-1.76A76.25,76.25,0,0,1,302.6,53.37Z"/><path class="cls-1" d="M332.11,131.9a24.54,24.54,0,1,0,49.07,0V118.39a35,35,0,1,0-49.07,0Zm24.54,18.87a18.89,18.89,0,0,1-18.87-18.87v0h37.74v0A18.9,18.9,0,0,1,356.65,150.77Zm0-46.19a10.17,10.17,0,1,1,10.16-10.16A10.18,10.18,0,0,1,356.65,104.58ZM327.29,93.41a29.35,29.35,0,1,1,49.14,21.67,2.84,2.84,0,0,0-.92,2.09v9h-16V110a15.84,15.84,0,1,0-5.67,0v16.21h-16v-9a2.83,2.83,0,0,0-.92-2.09,29.44,29.44,0,0,1-9.56-21.67Z"/></svg>