<svg id="Layer_1" data-name="Layer 1" xmlns="http://www.w3.org/2000/svg" viewBox="0 0 500 500"><defs><style>.cls-1{fill:#32487a;}</style></defs><title>Untitled-1</title><path class="cls-1" d="M399.13,352.88v90.95H431V352.88Zm26.27,85.37H404.7v-37.1h20.7Zm0-42.68H404.7V358.46h20.7Z"/><path class="cls-1" d="M69,352.88v90.95h31.84V352.88ZM95.3,438.25H74.6v-37.1H95.3Zm0-42.68H74.6V358.46H95.3Z"/><path class="cls-1" d="M457.24,443.83V305.92h13.13V274.07H365.31V187.72H385V157L254.75,85.85l-2-1.08V61.18h52.53V29.34H247.21V84.77l-2,1.08L115,157v30.71h19.69v86.35H29.63v31.85H42.76V443.83h5.58V305.92h86.35V438.25H121.57v26.27H29.63v5.58H470.37v-5.58H378.43V438.25H365.31V305.92h86.35V443.83ZM252.79,34.92h47V55.61h-47ZM141.68,148.78,248.19,90.59l1.81-1,1.81,1,106.51,58.19,13,7.09H128.7ZM35.2,300.34V279.65h99.49v20.69ZM372.87,443.83v20.69H127.13V443.83H239.65v-5.58H166.54V417.56H333.46v20.69H260.35v5.58ZM186.24,326.61V305.92H313.76v20.69Zm114.39,5.58V412H252.79v-79.8Zm-101.26,0h47.84V412H199.37Zm61-150v5.58h99.38V438.25H339V412H306.2v-79.8h13.14V300.34H180.66v31.85H193.8V412H161v26.26H140.27V187.72h99.38v-5.58H120.57V161.45H379.43v20.69Zm105,118.2V279.65H464.8v20.69Z"/><rect class="cls-1" x="193.8" y="241.24" width="45.86" height="5.57"/><rect class="cls-1" x="193.8" y="267.51" width="45.86" height="5.57"/><rect class="cls-1" x="260.35" y="241.24" width="45.86" height="5.57"/><rect class="cls-1" x="260.35" y="267.51" width="45.86" height="5.57"/><rect class="cls-1" x="260.35" y="129.61" width="5.58" height="5.58"/><rect class="cls-1" x="234.08" y="129.61" width="5.57" height="5.58"/></svg>