<?xml version="1.0" encoding="utf-8"?>
<!-- Generator: Adobe Illustrator 25.0.0, SVG Export Plug-In . SVG Version: 6.00 Build 0)  -->
<svg version="1.1" id="Layer_1" xmlns="http://www.w3.org/2000/svg" xmlns:xlink="http://www.w3.org/1999/xlink" x="0px" y="0px"
	 viewBox="0 0 496 496" style="enable-background:new 0 0 496 496;" xml:space="preserve">
<style type="text/css">
	.st0{fill:#11426A;}
</style>
<path class="st0" d="M244,280c0-13.2-10.8-24-24-24h-72v-40c0-6-2.3-11.5-6-15.7c13.2-8.6,22-23.4,22-40.3v-24c0-26.5-21.5-48-48-48
	s-48,21.5-48,48v24c0,16.1,8,30.3,20.1,39c-3.3,8.1-6,16.5-8,25H36c-13.2,0-24,10.8-24,24s10.8,24,24,24h8v72
	c0,15.7,9.2,29.2,22.3,35.7l-29.2,87.7c-0.7,2.2-1.1,4.5-1.1,6.9c0,12,9.8,21.8,22.3,21.8c9.2,0,17.4-5.8,20.5-14.4l12-33.6H172v48
	h168V336h16v-48H242.5C243.4,285.5,244,282.8,244,280z M220,272c4.4,0,8,3.6,8,8s-3.6,8-8,8h-96c-4.4,0-8-3.6-8-8v-64
	c0-4.4,3.6-8,8-8s8,3.6,8,8v56H220z M124,304h48v32H92v-76.2c0-16.5,2.9-33,8.5-48.5c-0.3,1.5-0.5,3.1-0.5,4.8v64
	C100,293.2,110.8,304,124,304z M84,136c0-17.6,14.4-32,32-32s32,14.4,32,32v24c0,17.6-14.4,32-32,32s-32-14.4-32-32V136z M36,256
	c-4.4,0-8-3.6-8-8s3.6-8,8-8h41.3c-0.8,6.6-1.3,13.2-1.3,19.8V336c0,8.8,7.2,16,16,16h80v16H84c-13.2,0-24-10.8-24-24v-88H36z
	 M113.6,384H172v16h-64.1L113.6,384z M63.7,476.2c-0.8,2.3-3,3.8-6,3.8c-3.2,0-5.8-2.6-5.8-5.8c0-0.6,0.1-1.2,0.3-1.8l29.5-88.6
	c0.7,0,1.4,0.2,2.2,0.2h12.6L63.7,476.2z M96.5,432l5.7-16H172v16H96.5z M324,480H188V336h136V480z M340,320H188v-16h152V320z"/>
<path class="st0" d="M457.9,109.5c11-8.8,18.1-22.3,18.1-37.5V48c0-26.5-21.5-48-48-48s-48,21.5-48,48v24
	c0,18.4,10.4,34.3,25.6,42.4c-4.8,3.8-9,8.5-12.2,14c-9.9,17.3-16.2,36-19.2,55.6H332c-13.2,0-24,10.8-24,24s10.8,24,24,24h40v48h16
	v216h96V152.5C484,133.8,473.4,117.6,457.9,109.5z M396,72V48c0-17.6,14.4-32,32-32s32,14.4,32,32v24c0,17.6-14.4,32-32,32
	S396,89.6,396,72z M404,142.9V184h-13.7C392.8,169.6,397.4,155.9,404,142.9z M324,208c0-4.4,3.6-8,8-8h88v-72c0-1.9,0.8-3.6,1.8-4.9
	c2.7-1.2,5.5-2.1,8.5-2.6c3.3,1,5.7,3.9,5.7,7.5v80c0,4.4-3.6,8-8,8h-96C327.6,216,324,212.4,324,208z M428,232
	c13.2,0,24-10.8,24-24v-80c0-1.2-0.2-2.4-0.4-3.5c9.7,5.6,16.4,16,16.4,28V264h-80v-32H428z M404,280h16v200h-16V280z M436,480V280
	h32v200H436z"/>
<path class="st0" d="M316,32h16v16h-16V32z"/>
<path class="st0" d="M284,32h16v16h-16V32z"/>
<path class="st0" d="M252,32h16v16h-16V32z"/>
<path class="st0" d="M316,110.1V80h48V0H220v80h45.8L316,110.1z M236,16h112v48h-48v17.9L270.2,64H236V16z"/>
<path class="st0" d="M212,160h16v16h-16V160z"/>
<path class="st0" d="M244,160h16v16h-16V160z"/>
<path class="st0" d="M228,230.9l34.4-22.9H292v-80H180v80h48V230.9z M196,192v-48h80v48h-18.4l-13.6,9.1V192H196z"/>
</svg>
