<?xml version="1.0" encoding="utf-8"?>
<!-- Generator: Adobe Illustrator 25.0.0, SVG Export Plug-In . SVG Version: 6.00 Build 0)  -->
<svg version="1.1" id="Line_stroke_cut_Ex" xmlns="http://www.w3.org/2000/svg" xmlns:xlink="http://www.w3.org/1999/xlink" x="0px"
	 y="0px" viewBox="0 0 512 512" style="enable-background:new 0 0 512 512;" xml:space="preserve">
<style type="text/css">
	.st0{fill:#11426A;}
</style>
<g>
	<path class="st0" d="M136,44c0-6.6,5.4-12,12-12h216c6.6,0,12,5.4,12,12v44h16V44c0-15.5-12.5-28-28-28H148c-15.5,0-28,12.5-28,28
		v44h16V44z"/>
	<path class="st0" d="M376,432H136v-24h-16v60c0,15.5,12.5,28,28,28h216c15.5,0,28-12.5,28-28v-60h-16V432z M364,480H148
		c-6.6,0-12-5.4-12-12v-20h240v20C376,474.6,370.6,480,364,480z"/>
	<path class="st0" d="M224,56h64v16h-64V56z"/>
	<path class="st0" d="M480,374c0,1.1-0.9,2-2,2H34c-1.1,0-2-0.9-2-2V168H16v206c0,9.9,8.1,18,18,18h444c9.9,0,18-8.1,18-18v-62h-16
		V374z"/>
	<path class="st0" d="M478,104H34c-9.9,0-18,8.1-18,18v30h16v-30c0-1.1,0.9-2,2-2h444c1.1,0,2,0.9,2,2v174h16V122
		C496,112.1,487.9,104,478,104z"/>
	<path class="st0" d="M312,312h16v32h-16V312z"/>
	<path class="st0" d="M280,312h16v32h-16V312z"/>
	<path class="st0" d="M344,312h32v32h-32V312z"/>
	<path class="st0" d="M392,312h16v32h-16V312z"/>
	<path class="st0" d="M424,312h32v32h-32V312z"/>
	<path class="st0" d="M280,232h112v16H280V232z"/>
	<path class="st0" d="M408,232h48v16h-48V232z"/>
	<path class="st0" d="M344,264h112v16H344V264z"/>
	<path class="st0" d="M280,264h48v16h-48V264z"/>
	<path class="st0" d="M280,200h32v16h-32V200z"/>
	<path class="st0" d="M328,200h64v16h-64V200z"/>
	<path class="st0" d="M376,152h16v16h-16V152z"/>
	<path class="st0" d="M408,152h16v16h-16V152z"/>
	<path class="st0" d="M440,152h16v16h-16V152z"/>
	<path class="st0" d="M280,168h72v16h-72V168z"/>
	<path class="st0" d="M240,360c4.4,0,8-3.6,8-8V144c0-4.4-3.6-8-8-8H64c-4.4,0-8,3.6-8,8v208c0,4.4,3.6,8,8,8H240z M72,324.8
		c0-9.2,5.7-17.4,14.3-20.6l38.9-14.6l4.4,5.9c9.3,12.4,26.8,14.9,39.2,5.6c2.1-1.6,4-3.5,5.6-5.6l4.4-5.9l38.9,14.6
		c8.6,3.2,14.2,11.4,14.3,20.6V344H72L72,324.8z M167.1,278.6l-5.5,7.3c-4,5.3-11.5,6.4-16.8,2.4c-0.9-0.7-1.7-1.5-2.4-2.4l-5.5-7.3
		l4.9-14.6h20.5L167.1,278.6z M176,236c0,6.6-5.4,12-12,12h-24c-6.6,0-12-5.4-12-12v-40c0-6.6,5.4-12,12-12h24c6.6,0,12,5.4,12,12
		V236z M232,152v141.8c-2.7-1.9-5.6-3.5-8.7-4.6l-41-15.4l-4.5-13.5c8.7-5,14.1-14.3,14.1-24.3v-40c0-15.5-12.5-28-28-28h-24
		c-15.5,0-28,12.5-28,28v40c0,10.1,5.4,19.3,14.1,24.3l-4.5,13.5l-41,15.4c-3.1,1.2-6,2.7-8.7,4.6V152H232z"/>
</g>
</svg>
