<?xml version="1.0" encoding="utf-8"?>
<!-- Generator: Adobe Illustrator 25.0.0, SVG Export Plug-In . SVG Version: 6.00 Build 0)  -->
<svg version="1.1" id="Layer_1" xmlns="http://www.w3.org/2000/svg" xmlns:xlink="http://www.w3.org/1999/xlink" x="0px" y="0px"
	 viewBox="0 0 512 512" style="enable-background:new 0 0 512 512;" xml:space="preserve">
<style type="text/css">
	.st0{fill:#11426A;}
</style>
<g id="Page-1">
	<g id="_x30_31---University">
		<path id="Shape" class="st0" d="M503.5,454.6V256c0-1.3-0.4-2.6-1-3.8h0.1l-20.9-41.8c-4.3-8.7-13.2-14.2-22.9-14.2h-57.7v-8.5
			c0-2.3-0.9-4.4-2.5-6l-46.2-46.2c-3.1-3-6.9-5.2-11-6.4V71.6l17.1-4.6v20.7v0.1c0,8.8,4.4,16.9,11.7,21.8c2.5,1.7,5.8,1.9,8.5,0.6
			c2.7-1.4,4.5-4.1,4.7-7.1c0.2-3-1.2-6-3.8-7.7c-2.5-1.7-4.1-4.5-4.1-7.6v-0.1v-26c6-3.5,9.3-10.2,8.4-17
			c-0.9-6.8-5.8-12.5-12.5-14.3l-111-29.8c-2.9-0.8-5.9-0.8-8.8,0l-111,29.8c-7.5,2-12.6,8.8-12.6,16.6s5.2,14.5,12.6,16.6l30,8.1
			V128h-0.5c-7.6,0-14.8,3.4-19.6,9.2L113,182.3c-1.3,1.5-2,3.5-2,5.5v8.5H53.2c-9.7,0-18.6,5.5-22.9,14.1L9.4,252.2h0.1
			c-0.6,1.2-1,2.5-1,3.8v198.6c-5.3,3-8.5,8.6-8.5,14.7v17.1c0,9.4,7.6,17.1,17.1,17.1h113.3c3,5.3,8.6,8.5,14.7,8.5h221.9
			c6.1,0,11.7-3.3,14.7-8.5h113.3c9.4,0,17.1-7.6,17.1-17.1v-17.1C512,463.3,508.7,457.7,503.5,454.6z M375.5,452.3h-8.5V264.5
			h119.5v187.7H375.5z M281.6,452.3h-51.2v-93.9h51.2V452.3z M290.1,341.3h-68.3c-4.7,0-8.5,3.8-8.5,8.5v102.4h-51.2V264.5h187.7
			v187.7h-51.2V349.9C298.7,345.2,294.8,341.3,290.1,341.3z M384,196.3v17.1H128v-17.1H384z M366.9,230.4v17.1H145.1v-17.1H366.9z
			 M458.8,213.3c3.2,0,6.2,1.8,7.6,4.7l14.7,29.4H384v-17.1c9.4,0,17.1-7.6,17.1-17.1H458.8z M256,17.1l111.1,29.9h-0.1L256,76.8
			l-111-29.9L256,17.1z M187.7,76.1l63.9,17.2c2.9,0.8,5.9,0.8,8.8,0l63.9-17.2V128H187.7V76.1z M163.6,148.1c1.6-1.9,4-3.1,6.6-3.1
			h164.1c2.3,0,4.4,0.9,6,2.5l31.6,31.6H137.7L163.6,148.1z M45.6,218.1c1.4-2.9,4.4-4.7,7.6-4.7h57.7c0,9.4,7.6,17.1,17.1,17.1
			v17.1H30.9L45.6,218.1z M17.1,469.3H128v17.1H17.1V469.3z M136.5,452.3H25.6V264.5h119.5v187.7H136.5z M145.1,494.9v-25.6h221.9
			v25.6H145.1z M494.9,486.4H384v-17.1h110.9V486.4z"/>
		<path id="Shape_1_" class="st0" d="M230.4,281.6c-4.7,0-8.5,3.8-8.5,8.5v17.1c0,4.7,3.8,8.5,8.5,8.5s8.5-3.8,8.5-8.5v-17.1
			C238.9,285.4,235.1,281.6,230.4,281.6z"/>
		<path id="Shape_2_" class="st0" d="M110.9,290.1c-4.7,0-8.5,3.8-8.5,8.5v17.1c0,4.7,3.8,8.5,8.5,8.5c4.7,0,8.5-3.8,8.5-8.5v-17.1
			C119.5,294,115.6,290.1,110.9,290.1z"/>
		<path id="Shape_3_" class="st0" d="M59.7,290.1c-4.7,0-8.5,3.8-8.5,8.5v17.1c0,4.7,3.8,8.5,8.5,8.5s8.5-3.8,8.5-8.5v-17.1
			C68.3,294,64.4,290.1,59.7,290.1z"/>
		<path id="Shape_4_" class="st0" d="M110.9,341.3c-4.7,0-8.5,3.8-8.5,8.5v17.1c0,4.7,3.8,8.5,8.5,8.5c4.7,0,8.5-3.8,8.5-8.5v-17.1
			C119.5,345.2,115.6,341.3,110.9,341.3z"/>
		<path id="Shape_5_" class="st0" d="M59.7,341.3c-4.7,0-8.5,3.8-8.5,8.5v17.1c0,4.7,3.8,8.5,8.5,8.5s8.5-3.8,8.5-8.5v-17.1
			C68.3,345.2,64.4,341.3,59.7,341.3z"/>
		<path id="Shape_6_" class="st0" d="M110.9,392.5c-4.7,0-8.5,3.8-8.5,8.5v17.1c0,4.7,3.8,8.5,8.5,8.5c4.7,0,8.5-3.8,8.5-8.5v-17.1
			C119.5,396.4,115.6,392.5,110.9,392.5z"/>
		<path id="Shape_7_" class="st0" d="M59.7,392.5c-4.7,0-8.5,3.8-8.5,8.5v17.1c0,4.7,3.8,8.5,8.5,8.5s8.5-3.8,8.5-8.5v-17.1
			C68.3,396.4,64.4,392.5,59.7,392.5z"/>
		<path id="Shape_8_" class="st0" d="M452.3,290.1c-4.7,0-8.5,3.8-8.5,8.5v17.1c0,4.7,3.8,8.5,8.5,8.5s8.5-3.8,8.5-8.5v-17.1
			C460.8,294,457,290.1,452.3,290.1z"/>
		<path id="Shape_9_" class="st0" d="M401.1,290.1c-4.7,0-8.5,3.8-8.5,8.5v17.1c0,4.7,3.8,8.5,8.5,8.5s8.5-3.8,8.5-8.5v-17.1
			C409.6,294,405.8,290.1,401.1,290.1z"/>
		<path id="Shape_10_" class="st0" d="M452.3,341.3c-4.7,0-8.5,3.8-8.5,8.5v17.1c0,4.7,3.8,8.5,8.5,8.5s8.5-3.8,8.5-8.5v-17.1
			C460.8,345.2,457,341.3,452.3,341.3z"/>
		<path id="Shape_11_" class="st0" d="M401.1,341.3c-4.7,0-8.5,3.8-8.5,8.5v17.1c0,4.7,3.8,8.5,8.5,8.5s8.5-3.8,8.5-8.5v-17.1
			C409.6,345.2,405.8,341.3,401.1,341.3z"/>
		<path id="Shape_12_" class="st0" d="M452.3,392.5c-4.7,0-8.5,3.8-8.5,8.5v17.1c0,4.7,3.8,8.5,8.5,8.5s8.5-3.8,8.5-8.5v-17.1
			C460.8,396.4,457,392.5,452.3,392.5z"/>
		<path id="Shape_13_" class="st0" d="M401.1,392.5c-4.7,0-8.5,3.8-8.5,8.5v17.1c0,4.7,3.8,8.5,8.5,8.5s8.5-3.8,8.5-8.5v-17.1
			C409.6,396.4,405.8,392.5,401.1,392.5z"/>
		<path id="Shape_14_" class="st0" d="M281.6,281.6c-4.7,0-8.5,3.8-8.5,8.5v17.1c0,4.7,3.8,8.5,8.5,8.5s8.5-3.8,8.5-8.5v-17.1
			C290.1,285.4,286.3,281.6,281.6,281.6z"/>
	</g>
</g>
</svg>
