<svg id="Layer_1" data-name="Layer 1" xmlns="http://www.w3.org/2000/svg" viewBox="0 0 500 500"><defs><style>.cls-1{fill:#32487a;}</style></defs><title>Untitled-1</title><path class="cls-1" d="M439.42,71a24,24,0,0,0-16-9.36L192.54,30.11a25,25,0,0,0-3.34-.22,24.24,24.24,0,0,0-23.93,20.94L161.15,81l-.39,2.83-.39,2.84-.11.81H100.53a24.24,24.24,0,0,0-24.21,24.21V445.9a24.24,24.24,0,0,0,24.21,24.21h233a24.24,24.24,0,0,0,24.22-24.21v-7l1.07.15,2.84.37,2.84.39,7.1,1a24.24,24.24,0,0,0,27.27-20.72L444.15,88.92A24,24,0,0,0,439.42,71ZM350.9,445.9a17.35,17.35,0,0,1-17.33,17.33h-233A17.35,17.35,0,0,1,83.21,445.9V111.7a17.34,17.34,0,0,1,17.32-17.33H162.8a7.91,7.91,0,0,0,.83.06,7,7,0,0,0,.8-.06H333.57A17.34,17.34,0,0,1,350.9,111.7ZM437.33,88,392.07,419.14a17.36,17.36,0,0,1-17.11,15,16.24,16.24,0,0,1-2.4-.17l-8.28-1.12-2.84-.39-2.83-.39-.82-.11V111.69a24.24,24.24,0,0,0-24.22-24.21H167.21l.15-1.08.78-5.67,4-29a17.37,17.37,0,0,1,17.11-15,17.75,17.75,0,0,1,2.41.17L422.51,68.49A17.37,17.37,0,0,1,437.33,88Z"/><path class="cls-1" d="M292.75,387.18a3.45,3.45,0,0,1-3.44,3.45H137.57a3.45,3.45,0,1,1,0-6.89H289.31A3.44,3.44,0,0,1,292.75,387.18Z"/><path class="cls-1" d="M220.5,423.31a3.45,3.45,0,0,1-3.44,3.45H137.57a3.45,3.45,0,0,1,0-6.9h79.49A3.45,3.45,0,0,1,220.5,423.31Z"/><path class="cls-1" d="M332.67,159.74H101.45A3.46,3.46,0,0,0,98,163.19V307.7a3.45,3.45,0,0,0,3.45,3.44H332.67a3.45,3.45,0,0,0,3.45-3.44V163.19A3.46,3.46,0,0,0,332.67,159.74Zm-227.78,6.89h94.27v79.81H104.89ZM329.22,304.25H104.89v-22H329.22Zm0-28.9H104.89v-22H329.22Zm0-28.91H206.05v-22H329.22Zm0-28.89H206.05v-22H329.22Zm0-28.91H206.05v-22H329.22Z"/><path class="cls-1" d="M171.27,200.78a3.56,3.56,0,0,0-1.25-1.73,3.5,3.5,0,0,0-2-.65h-5.59a12.46,12.46,0,0,1-11.86-8.61l-1.72-5.31a3.44,3.44,0,0,0-6.55,0l-1.72,5.31a12.46,12.46,0,0,1-11.86,8.61h-5.58a3.45,3.45,0,0,0-2,6.24l4.51,3.27a12.43,12.43,0,0,1,4.52,14l-1.72,5.3a3.43,3.43,0,0,0,1.26,3.84,3.44,3.44,0,0,0,4,0l4.52-3.29a12.48,12.48,0,0,1,14.66,0L157.4,231a3.44,3.44,0,0,0,5.3-3.84l-1.72-5.3a12.44,12.44,0,0,1,4.52-14l4.52-3.28A3.44,3.44,0,0,0,171.27,200.78Zm-14,5.25-1.46,2.64a19.68,19.68,0,0,0-2.23,6.86l-.37,3-.13,1-1-.19-3-.54a19.44,19.44,0,0,0-7.24,0l-3,.54-1,.19-.13-1-.37-3a19.29,19.29,0,0,0-2.23-6.85L133.81,206l-.48-.88.9-.43,2.74-1.28a19.56,19.56,0,0,0,5.83-4.24l2.06-2.21.69-.72.69.73,2.06,2.2a19.41,19.41,0,0,0,5.83,4.22l2.74,1.29.91.43Z"/></svg>