<?xml version="1.0" encoding="utf-8"?>
<!-- Generator: Adobe Illustrator 25.0.0, SVG Export Plug-In . SVG Version: 6.00 Build 0)  -->
<svg version="1.1" id="Layer_1" xmlns="http://www.w3.org/2000/svg" xmlns:xlink="http://www.w3.org/1999/xlink" x="0px" y="0px"
	 viewBox="0 0 347.4 446.2" style="enable-background:new 0 0 347.4 446.2;" xml:space="preserve">
<style type="text/css">
	.st0{fill:#11426A;}
</style>
<g>
	<g>
		<path class="st0" d="M278.5,439.5c-1.3,0-2.3-1-2.4-2.3l0,0v-57.1c0-1.3,1.1-2.4,2.4-2.4H340c1.3,0,2.4,1.1,2.4,2.4
			c0,0.6-0.3,1.3-0.8,1.7l-61.5,57C279.7,439.3,279.1,439.5,278.5,439.5z M280.8,382.5v49.3l53.1-49.3H280.8z"/>
		<path class="st0" d="M278.5,444.5c-3.9,0-7.1-3-7.4-6.9l0-0.4v-57.1c0-4.1,3.3-7.4,7.4-7.4H340c4.1,0,7.4,3.3,7.4,7.4
			c0,2.1-0.9,4.1-2.5,5.4l-61.2,56.7C282.4,443.7,280.5,444.5,278.5,444.5z M285.8,387.5v32.8l35.4-32.8H285.8z"/>
	</g>
	<g>
		<path class="st0" d="M7.4,441.2c-0.6,0-1.2-0.2-1.7-0.7c-0.4-0.4-0.7-1-0.7-1.7V7.4C5,6.1,6.1,5,7.4,5H340c1.3,0,2.4,1.1,2.4,2.4
			v372.7c0,1.3-1.1,2.4-2.4,2.4h-59.1v54.7c0,1.3-1.1,2.4-2.3,2.4L7.4,441.2L7.4,441.2z M278.5,437.2L278.5,437.2z M9.7,9.7v426.7
			l266.4-1.6v-54.7c0-1.3,1.1-2.4,2.4-2.4h59.1V9.7H9.7z"/>
		<path class="st0" d="M7.4,446.2L7.4,446.2c-2,0-3.9-0.8-5.2-2.2c-1.4-1.4-2.2-3.3-2.2-5.2V7.4C0,3.3,3.3,0,7.4,0H340
			c4.1,0,7.4,3.3,7.4,7.4v372.7c0,4.1-3.3,7.4-7.4,7.4h-54.1v49.7c0,4-3.3,7.4-7.3,7.4L7.4,446.2z M14.7,14.7v416.7l256.4-1.5v-49.7
			c0-4.1,3.3-7.4,7.4-7.4h54.1v-358H14.7z"/>
	</g>
	<g>
		<path class="st0" d="M166.4,195.9H50.2c-1.3,0-2.4-1-2.4-2.3l0,0V61.4c0-1.3,1.1-2.4,2.4-2.4l0,0h116.2c1.3,0,2.4,1.1,2.4,2.4l0,0
			v132.2C168.7,194.9,167.7,195.9,166.4,195.9L166.4,195.9z M52.5,191.2H164V63.8H52.5V191.2z"/>
		<path class="st0" d="M166.4,200.9H50.2c-4.1,0-7.4-3.3-7.4-7.3V61.4c0-4.1,3.3-7.4,7.4-7.4h116.2c4.1,0,7.4,3.3,7.4,7.4v132.4
			l0,0.2C173.5,197.9,170.3,200.9,166.4,200.9z M57.5,186.2H159V68.8H57.5V186.2z"/>
	</g>
	<g>
		<path class="st0" d="M108.6,133.4c-13.6,0-24.6-11-24.6-24.6s11-24.6,24.6-24.6s24.6,11,24.6,24.6
			C133.1,122.4,122.2,133.4,108.6,133.4z M108.6,89c-11,0-19.9,8.9-19.9,19.8s8.9,19.9,19.8,19.9s19.9-8.9,19.9-19.8l0,0
			C128.4,97.8,119.6,89,108.6,89L108.6,89z"/>
		<path class="st0" d="M108.6,138.4c-16.3,0-29.6-13.3-29.6-29.6c0-16.3,13.3-29.6,29.6-29.6s29.6,13.3,29.6,29.6
			C138.1,125.1,124.8,138.4,108.6,138.4z M108.6,94c-8.2,0-14.9,6.6-14.9,14.8c0,8.2,6.6,14.9,14.8,14.9c8.2,0,14.9-6.6,14.9-14.8
			C123.4,100.5,116.9,94,108.6,94z"/>
	</g>
	<g>
		<path class="st0" d="M152.1,195.9H65c-1.2,0-2.3-0.9-2.4-2.2c-0.1-1.2-0.1-2.5-0.1-3.6c0-25.4,20.6-46.1,46.1-46.1
			s46.1,20.6,46.1,46.1c0,1.2-0.1,2.4-0.1,3.6C154.4,195,153.4,195.9,152.1,195.9z M67.3,191.2h82.6c0-0.4,0-0.7,0-1.1
			c0-22.8-18.5-41.3-41.3-41.3s-41.3,18.5-41.3,41.3C67.3,190.5,67.3,190.8,67.3,191.2z"/>
		<path class="st0" d="M152.1,200.9H65c-3.8,0-7.1-3-7.4-6.8c-0.1-1.4-0.1-2.8-0.1-4c0-28.2,22.9-51.1,51.1-51.1
			s51.1,22.9,51.1,51.1c0,0.7,0,1.3-0.1,2c0,0.5,0,1.1,0,1.6v0.4l-0.1,0.4C159,198.2,155.8,200.9,152.1,200.9z M72.5,186.2h72.2
			c-2-18.2-17.4-32.4-36.1-32.4C89.9,153.8,74.5,168,72.5,186.2z"/>
	</g>
	<g>
		<path class="st0" d="M197.4,99.5c-1.3,0-2.4-1.1-2.4-2.4s1.1-2.4,2.4-2.4l107.7-1.9c1.3,0,2.4,1,2.4,2.3c0,0,0,0,0,0.1
			c0,1.3-1,2.4-2.3,2.4l0,0L197.4,99.5L197.4,99.5z"/>
		<path class="st0" d="M197.4,104.5L197.4,104.5c-4.1,0-7.4-3.3-7.4-7.4s3.3-7.4,7.4-7.4L305,87.8h0c4.2,0,7.5,3.3,7.5,7.3v0.1
			c0,4.1-3.3,7.4-7.3,7.4L197.4,104.5z M197.6,99.7L197.6,99.7C197.5,99.7,197.5,99.7,197.6,99.7z M305.1,92.6
			C305.1,92.6,305.1,92.6,305.1,92.6L305.1,92.6C305.1,92.6,305.1,92.6,305.1,92.6z"/>
	</g>
	<g>
		<path class="st0" d="M305.1,122.8H197.4c-1.3-0.1-2.3-1.2-2.2-2.5c0.1-1.2,1-2.1,2.2-2.2h107.7c1.3,0.1,2.3,1.2,2.2,2.5
			C307.3,121.8,306.3,122.8,305.1,122.8z"/>
		<path class="st0" d="M305.1,127.8H197.2l-0.2,0c-1.9-0.1-3.7-1-5-2.5c-1.3-1.5-2-3.4-1.8-5.4c0.3-3.6,3.1-6.5,6.8-6.8l0.4,0h107.9
			l0.2,0c1.9,0.1,3.7,1,5,2.5c1.3,1.4,1.9,3.3,1.8,5.2C312.2,124.7,309,127.8,305.1,127.8z"/>
	</g>
	<g>
		<path class="st0" d="M305.1,146.2H197.4c-1.3-0.1-2.3-1.2-2.2-2.5c0.1-1.2,1-2.1,2.2-2.2h107.7c1.3,0.1,2.3,1.2,2.2,2.5
			C307.3,145.2,306.3,146.1,305.1,146.2z"/>
		<path class="st0" d="M305.3,151.2l-108.3,0c-1.9-0.1-3.7-1-5-2.5c-1.3-1.5-2-3.4-1.8-5.4c0.3-3.6,3.1-6.5,6.8-6.8l0.4,0h107.9
			l0.2,0c1.9,0.1,3.7,1,5,2.5c1.3,1.4,1.9,3.3,1.8,5.2c-0.1,3.7-3,6.7-6.8,7L305.3,151.2z"/>
	</g>
	<g>
		<path class="st0" d="M305.1,169.6H197.4c-1.3,0-2.4-1.1-2.4-2.4s1.1-2.4,2.4-2.4h107.7c1.3,0,2.4,1.1,2.4,2.4
			S306.4,169.6,305.1,169.6z"/>
		<path class="st0" d="M305.1,174.6H197.4c-4.1,0-7.4-3.3-7.4-7.4c0-4.1,3.3-7.4,7.4-7.4h107.7c4.1,0,7.4,3.3,7.4,7.4
			C312.5,171.3,309.2,174.6,305.1,174.6z"/>
	</g>
	<g>
		<path class="st0" d="M173.7,382.3c-38.9,0-70.4-31.5-70.5-70.4s31.5-70.4,70.4-70.5c23.8,0,46.1,12,59.1,32l0,0
			c21.2,32.6,12,76.2-20.6,97.4C200.6,378.3,187.3,382.3,173.7,382.3z M173.7,246.2c-36.3,0-65.7,29.4-65.7,65.7
			s29.4,65.7,65.7,65.7s65.7-29.4,65.7-65.7c0-12.7-3.7-25.1-10.6-35.8l0,0C216.6,257.4,195.9,246.1,173.7,246.2z M173.7,360.4
			c-26.8,0-48.6-21.8-48.5-48.6c0-26.8,21.8-48.6,48.6-48.5c26.8,0,48.5,21.7,48.5,48.6C222.2,338.7,200.5,360.4,173.7,360.4z
			 M173.7,268c-24.2,0-43.8,19.6-43.8,43.8s19.6,43.8,43.8,43.8s43.8-19.6,43.8-43.8l0,0C217.5,287.7,197.9,268.1,173.7,268z"/>
		<path class="st0" d="M173.7,387.3c-41.5,0-75.4-33.8-75.5-75.4c-0.1-20.1,7.8-39.1,22-53.3c14.2-14.2,33.2-22.1,53.3-22.2
			c25.7,0,49.4,12.8,63.3,34.3c11,16.9,14.7,37,10.6,56.7c-4.2,19.7-15.8,36.6-32.6,47.6C202.5,383,188.3,387.3,173.7,387.3z
			 M173.7,251.2c-33.5,0-60.7,27.2-60.7,60.7s27.2,60.7,60.7,60.7c33.5,0,60.7-27.2,60.7-60.7c0-11.7-3.4-23.1-9.8-33.1
			c-11.3-17.3-30.2-27.6-50.6-27.6C173.9,251.2,173.8,251.2,173.7,251.2L173.7,251.2z M173.7,365.4c-14.3,0-27.8-5.6-37.9-15.8
			c-10.1-10.1-15.6-23.6-15.6-37.9c0-14.3,5.6-27.8,15.8-37.9c10.1-10.1,23.5-15.6,37.7-15.6c0.1,0,0.1,0,0.2,0
			c29.5,0,53.5,24,53.5,53.6C227.2,341.4,203.1,365.4,173.7,365.4z M173.7,273c-21.4,0-38.8,17.4-38.8,38.8
			c0,21.4,17.4,38.8,38.8,38.8s38.8-17.4,38.8-38.8C212.5,290.5,195.1,273.1,173.7,273z"/>
	</g>
	<g>
		<path class="st0" d="M173.7,360.4c-26.8,0-48.6-21.8-48.5-48.6c0-26.8,21.8-48.6,48.6-48.5c26.8,0,48.5,21.7,48.5,48.6
			C222.2,338.7,200.5,360.4,173.7,360.4z M173.7,268c-24.2,0-43.8,19.6-43.8,43.8s19.6,43.8,43.8,43.8s43.8-19.6,43.8-43.8l0,0
			C217.5,287.7,197.9,268.1,173.7,268z"/>
		<path class="st0" d="M173.7,365.4c-14.3,0-27.8-5.6-37.9-15.8c-10.1-10.1-15.6-23.6-15.6-37.9c0-14.3,5.6-27.8,15.8-37.9
			c10.1-10.1,23.5-15.6,37.7-15.6c0.1,0,0.1,0,0.2,0c29.5,0,53.5,24,53.5,53.6C227.2,341.4,203.1,365.4,173.7,365.4z M173.7,273
			c-21.4,0-38.8,17.4-38.8,38.8c0,21.4,17.4,38.8,38.8,38.8s38.8-17.4,38.8-38.8C212.5,290.5,195.1,273.1,173.7,273z"/>
	</g>
	<g>
		<path class="st0" d="M173.7,360.4c-26.8,0-48.6-21.8-48.5-48.6c0-26.8,21.8-48.6,48.6-48.5c26.8,0,48.5,21.7,48.5,48.6
			C222.2,338.7,200.5,360.4,173.7,360.4z M173.7,268c-24.2,0-43.8,19.6-43.8,43.8s19.6,43.8,43.8,43.8s43.8-19.6,43.8-43.8l0,0
			C217.5,287.7,197.9,268.1,173.7,268z"/>
		<path class="st0" d="M173.7,365.4c-14.3,0-27.8-5.6-37.9-15.8c-10.1-10.1-15.6-23.6-15.6-37.9c0-14.3,5.6-27.8,15.8-37.9
			c10.1-10.1,23.5-15.6,37.7-15.6c0.1,0,0.1,0,0.2,0c29.5,0,53.5,24,53.5,53.6C227.2,341.4,203.1,365.4,173.7,365.4z M173.7,273
			c-21.4,0-38.8,17.4-38.8,38.8c0,21.4,17.4,38.8,38.8,38.8s38.8-17.4,38.8-38.8C212.5,290.5,195.1,273.1,173.7,273z"/>
	</g>
	<g>
		<path class="st0" d="M307.7,350.9H231c-0.9,0-1.7-0.5-2.1-1.2c-0.4-0.8-0.4-1.7,0.1-2.4c13.9-21.7,13.7-49.6-0.3-71.2
			c-0.7-1.1-0.4-2.6,0.7-3.3c0.4-0.3,0.8-0.4,1.3-0.4h77c1.3,0,2.4,1,2.4,2.3c0,0.6-0.2,1.1-0.6,1.6l-30.4,35.6l30.4,35.1
			c0.9,1,0.8,2.5-0.2,3.3C308.9,350.7,308.3,350.9,307.7,350.9L307.7,350.9z M235.2,346.1h67.4l-28.3-32.8c-0.8-0.9-0.8-2.2,0-3.1
			l28.4-33.2h-67.8C247,298.5,247.1,324.6,235.2,346.1L235.2,346.1z"/>
		<path class="st0" d="M307.7,355.9H231c-2.7,0-5.1-1.4-6.4-3.7l-0.1-0.2c-1.2-2.4-1.1-5.3,0.4-7.4c12.7-20,12.6-45.7-0.3-65.7
			c-1.1-1.7-1.4-3.6-1-5.5c0.4-1.9,1.5-3.5,3.1-4.6c1.2-0.9,2.6-1.3,4.1-1.3h77c4.1,0,7.4,3.3,7.4,7.3c0,1.7-0.6,3.3-1.7,4.7
			l-0.1,0.1l-27.6,32.3l27.6,31.8c1.3,1.4,2,3.4,1.8,5.4c-0.2,1.9-1,3.6-2.5,4.9C311.3,355.2,309.6,355.9,307.7,355.9z M243.2,341.1
			h48.5l-21.2-24.5c-2.4-2.7-2.4-6.9,0-9.7l21.3-24.9h-48.9C251.1,301,251.2,322.1,243.2,341.1z"/>
	</g>
	<g>
		<path class="st0" d="M116.3,350.9H40c-1.3,0-2.4-1.1-2.4-2.4c0-0.6,0.2-1.1,0.6-1.6l30.4-35.1l-30.4-35.6c-0.9-1-0.7-2.5,0.2-3.3
			c0.4-0.4,1-0.6,1.5-0.6h76.6c1.3,0,2.4,1,2.4,2.3c0,0.5-0.1,0.9-0.4,1.3c-14,21.6-14.2,49.5-0.3,71.2c0.7,1.1,0.4,2.6-0.7,3.3
			C117.2,350.7,116.7,350.9,116.3,350.9L116.3,350.9z M45.1,346.1h67c-11.9-21.5-11.8-47.6,0.3-69H45.1l28.4,33.2
			c0.8,0.9,0.8,2.2,0,3.1L45.1,346.1z"/>
		<path class="st0" d="M116.3,355.9H40c-4.1,0-7.4-3.3-7.4-7.4c0-1.7,0.6-3.3,1.7-4.7l0.1-0.1L62,311.8l-27.6-32.3
			c-1.3-1.4-1.9-3.3-1.8-5.2c0.1-1.9,1-3.7,2.3-5c1.3-1.2,3.1-2,4.9-2h76.6c4.1,0,7.4,3.3,7.4,7.3c0,1.5-0.4,2.9-1.3,4.1
			c-12.9,20-13,45.8-0.2,65.7c2.1,3.3,1.3,7.7-1.8,9.9C119.4,355.3,117.8,355.9,116.3,355.9z M56.1,341.1h48.1
			c-8-19-7.9-40.1,0.2-59H56l21.3,25c2.4,2.7,2.4,6.9-0.1,9.7L56.1,341.1z"/>
	</g>
</g>
</svg>
