<svg id="Layer_1" data-name="Layer 1" xmlns="http://www.w3.org/2000/svg" viewBox="0 0 500 500"><defs><style>.cls-1{fill:#32487a;}</style></defs><title>Untitled-1</title><path class="cls-1" d="M490.21,98.7h0l0,0,0,0a53.88,53.88,0,0,0-72.06-12.9L311,154.87,309.29,156l-2-.21L129.23,137.33h-.32a3,3,0,0,0-2.15.89l-24.49,24.48a3.07,3.07,0,0,0,.93,5l102,45,9.63,4.24-8.85,5.71-82.82,53.44-2.77,1.78-2.93-1.52L34.13,232.86a3.32,3.32,0,0,0-1.41-.34,3,3,0,0,0-1.75.55L6.89,249.83a3.1,3.1,0,0,0-1.26,2,3,3,0,0,0,.57,2.31L85.34,359.56a3,3,0,0,0,3.75.92L470.26,179.31A53.68,53.68,0,0,0,490.21,98.7ZM117.32,167.2l-7.57-3.33L115.6,158,130,143.56l2.69.27L285,159.6l16,1.65L287.52,170l-64,41.3L220.91,213l-2.79-1.23Zm376.07-25a47.14,47.14,0,0,1-25.76,31.56L92.93,351.91l-4.19,2L86,350.19,16.52,257.73,13,253l4.83-3.37,12.3-8.57,2.82-1.95L36,240.74l83.09,43.35a3.07,3.07,0,0,0,1.42.35,3,3,0,0,0,1.65-.49L421.44,90.87a47.69,47.69,0,0,1,63.73,11.3l0,0,.05.07A47.2,47.2,0,0,1,493.39,142.23Z"/><path class="cls-1" d="M467.87,457.34a3.06,3.06,0,0,1-3.06,3.05H41.68a3.06,3.06,0,1,1,0-6.11H464.81A3.06,3.06,0,0,1,467.87,457.34Z"/></svg>