<svg height="512" viewBox="0 0 512 512" width="512" xmlns="http://www.w3.org/2000/svg"><g id="BULINE"><circle cx="256" cy="256" fill="#7cc8fb" r="256"/></g><g id="Icons"><circle cx="256" cy="256" fill="#db1b1b" r="256"/><g fill="#f6c752"><path d="m306 125.65 14.93 22.92 26.41-7.12-17.19 21.29 14.93 22.92-25.55-9.77-17.18 21.28 1.39-27.32-25.55-9.76 26.41-7.12z"/><path d="m220.4 66.75 24.99 11.12 18.3-20.33-2.86 27.21 24.99 11.12-26.75 5.69-2.86 27.2-13.68-23.68-26.75 5.69 18.3-20.33z"/><path d="m283.26 312.18-22.92 14.93 7.12 26.41-21.28-17.18-22.92 14.93 9.77-25.55-21.29-17.19 27.32 1.4 9.77-25.55 7.12 26.41z"/><path d="m342.17 226.58-11.13 24.99 20.33 18.31-27.2-2.86-11.12 24.99-5.69-26.76-27.21-2.85 23.69-13.68-5.69-26.76 20.33 18.3z"/></g><path d="m293.4 509.28a257.75 257.75 0 0 1 -37.4 2.72c-141.39 0-256-114.62-256-256s114.61-256 256-256a257.75 257.75 0 0 1 37.4 2.72c-99.1 14.5-179.75 85.77-207.88 179.75a254.7 254.7 0 0 0 -10.52 64.33c-.12 3.06-.17 6.12-.17 9.2q0 12.71 1.22 25.09c11.37 117.22 101.83 211.29 217.35 228.19z" fill="#c41616"/><path d="m118 114.36 22.13 68.11h71.61l-57.93 42.1 22.13 68.11-57.94-42.1-57.94 42.1 22.13-68.11-57.93-42.1h71.61z" fill="#f6c752"/><path d="m74.8 256q0 12.71 1.22 25.09l-16 11.59 14.98-45.88c-.15 3.06-.2 6.12-.2 9.2z" fill="#e0ad3d"/><path d="m85.52 182.47a254.81 254.81 0 0 0 -8.34 38.46l-52.93-38.46z" fill="#e0ad3d"/><circle cx="433" cy="139.6" fill="#ef3a3a" r="23.61"/><circle cx="398.22" cy="104.82" fill="#ef3a3a" r="16.72"/></g></svg>